STARTFONT 2.1
FONT -Monotype-Book Antiqua-Regular-I-Normal--50-360-100-100-P-266-iso8859-2
SIZE 36 100 100
FONTBOUNDINGBOX 62 61 -10 -15

STARTPROPERTIES 24
FOUNDRY "Monotype"
FAMILY_NAME "Book Antiqua"
WEIGHT_NAME "Regular"
SLANT "I"
SETWIDTH_NAME "Normal"
ADD_STYLE_NAME ""
PIXEL_SIZE 50
POINT_SIZE 360
RESOLUTION_X 100
RESOLUTION_Y 100
SPACING "P"
AVERAGE_WIDTH 266
CHARSET_REGISTRY "iso8859"
CHARSET_ENCODING "2"
FACE_NAME "Book Antiqua Italic ISO Latin2"
_DEC_DEVICE_FONTNAMES "PS=bookantiqua-it-lat2"
COPYRIGHT "Copyright (c) 1993 Monotype Typography Ltd."
CAP_HEIGHT 44
X_HEIGHT 30
WEIGHT 10
QUAD_WIDTH 30
DEFAULT_CHAR 160
FONT_DESCENT 16
FONT_ASCENT 48
ENDPROPERTIES

CHARS 191

STARTCHAR space
ENCODING 32
SWIDTH 250 0
DWIDTH 13 0
BBX 0 0 0 0
BITMAP
ENDCHAR

STARTCHAR exclam
ENCODING 33
SWIDTH 333 0
DWIDTH 17 0
BBX 14 36 2 -1
BITMAP
0010
00F0
00F0
01F0
01F0
01E0
01E0
01E0
01E0
01C0
01C0
01C0
0180
0380
0380
0380
0380
0300
0300
0300
0300
0600
0600
0600
0600
0400
0000
0000
0000
0000
1C00
1E00
3E00
3E00
3E00
1C00
ENDCHAR

STARTCHAR quotedbl
ENCODING 34
SWIDTH 500 0
DWIDTH 25 0
BBX 17 15 7 20
BITMAP
100800
3C1E00
7C3E00
7C3E00
7C3E00
7C3E00
7C3E00
381E00
381C00
381C00
381C00
381C00
100C00
100800
100800
ENDCHAR

STARTCHAR numbersign
ENCODING 35
SWIDTH 606 0
DWIDTH 30 0
BBX 30 35 0 0
BITMAP
001C0380
003C0380
00380380
00380780
00380700
00380700
00380700
00380700
00780700
00700700
00700F00
1FFFFFF8
1FFFFFF8
1FFFFFF8
00700E00
00F00E00
00E01E00
00E01E00
00E01C00
00E01C00
00E01C00
3FFFFFE0
3FFFFFE0
3FFFFFE0
01C03800
01C03800
01C03800
01C03800
03C03800
03803800
03807800
03807000
03807000
03807000
07807000
ENDCHAR

STARTCHAR dollar
ENCODING 36
SWIDTH 500 0
DWIDTH 25 0
BBX 25 42 0 -5
BITMAP
00018000
00018000
00018000
0003F000
001FFE00
003D7F00
00E10E00
01C30600
01830600
03830600
03030600
07020000
07020000
07020000
07060000
07860000
07C60000
03F60000
03FF0000
01FFE000
007FF800
000FFC00
000C7C00
000C3E00
000C1E00
00081E00
00181E00
00181E00
10181C00
10181C00
10181C00
10103800
18107000
3C30E000
3F31C000
1FFF0000
07FC0000
00200000
00200000
00600000
00600000
00600000
ENDCHAR

STARTCHAR percent
ENCODING 37
SWIDTH 889 0
DWIDTH 44 0
BBX 35 39 4 -3
BITMAP
0000000E00
0000001C00
01F8001800
038C003800
0E0E003000
0E07006000
1C0700E000
1C0700C000
3C0701C000
3807018000
380F030000
380F070000
380E060000
380E0C0000
181C0C0000
1C38180000
0C70380000
07E0300000
0000600000
0000E00000
0000C00000
0001C00000
000180FC00
000303C600
0007070300
00060F0380
000C0E0380
000C1E0380
00181E0380
00381C0380
00301C0780
00601C0700
00601C0700
00C01C0E00
01800E1E00
0180063800
030003F000
0700000000
0600000000
ENDCHAR

STARTCHAR ampersand
ENCODING 38
SWIDTH 778 0
DWIDTH 39 0
BBX 39 36 1 -1
BITMAP
00003E0000
0001FF8000
0007FF8000
000E070000
001C030000
0038030000
0070030000
0070030000
0070000000
00F0000030
00F0000018
00F800000C
007800000C
007E00000C
003FC0001C
000FC00078
003E4007F8
01E003FFE0
03800FFF80
07003FF000
0F003FF800
1E00303C00
1E00301E00
3C00201E00
3C00201E00
3C00001E00
3C00001C00
3C00001C00
3E00003800
3E00003800
1F00007000
1F8000E000
0FC0038000
07F81F0000
01FFFC0000
007FE00000
ENDCHAR

STARTCHAR quoteright
ENCODING 39
SWIDTH 278 0
DWIDTH 14 0
BBX 12 12 3 24
BITMAP
00E0
03C0
03C0
0780
0780
0700
0600
0E00
0C00
1800
3800
3000
ENDCHAR

STARTCHAR parenleft
ENCODING 40
SWIDTH 333 0
DWIDTH 17 0
BBX 18 45 3 -9
BITMAP
000300
000700
000E00
001C00
003800
007000
00E000
00E000
01C000
03C000
078000
070000
0F0000
0F0000
1E0000
1E0000
1E0000
3C0000
3C0000
3C0000
7C0000
780000
780000
780000
780000
780000
780000
780000
780000
780000
780000
380000
380000
380000
3C0000
1C0000
1C0000
0C0000
0E0000
0E0000
060000
070000
030000
018000
018000
ENDCHAR

STARTCHAR parenright
ENCODING 41
SWIDTH 333 0
DWIDTH 17 0
BBX 19 45 -3 -9
BITMAP
006000
007000
003000
003800
001800
001C00
000C00
000E00
000E00
000E00
000700
000700
000700
000700
000780
000780
000780
000780
000780
000780
000780
000780
000780
000780
000F80
000F00
000F00
000F00
001E00
001E00
001E00
003C00
003C00
007800
007000
00F000
00E000
01C000
03C000
038000
070000
0E0000
1C0000
380000
300000
ENDCHAR

STARTCHAR asterisk
ENCODING 42
SWIDTH 389 0
DWIDTH 19 0
BBX 19 17 3 18
BITMAP
003000
003C00
103800
387000
3C7000
3E6000
0F6000
03CF80
00FFC0
03C3C0
1F6000
3E6000
3C7000
103800
003800
003800
002000
ENDCHAR

STARTCHAR plus
ENCODING 43
SWIDTH 606 0
DWIDTH 30 0
BBX 27 25 2 5
BITMAP
000E0000
000E0000
000E0000
000E0000
000E0000
000E0000
000E0000
000E0000
000E0000
000E0000
000E0000
7FFFFFC0
7FFFFFC0
7FFFFFC0
000E0000
000E0000
000E0000
000E0000
000E0000
000E0000
000E0000
000E0000
000E0000
000E0000
000E0000
ENDCHAR

STARTCHAR comma
ENCODING 44
SWIDTH 250 0
DWIDTH 13 0
BBX 13 13 -3 -7
BITMAP
0020
01E0
03E0
03C0
03C0
0380
0780
0700
0600
0E00
1C00
1800
3000
ENDCHAR

STARTCHAR minus
ENCODING 45
SWIDTH 606 0
DWIDTH 30 0
BBX 28 3 1 16
BITMAP
3FFFFFC0
3FFFFFC0
3FFFFFC0
ENDCHAR

STARTCHAR period
ENCODING 46
SWIDTH 250 0
DWIDTH 13 0
BBX 9 6 1 -1
BITMAP
1C00
1E00
3E00
3E00
3E00
1C00
ENDCHAR

STARTCHAR slash
ENCODING 47
SWIDTH 296 0
DWIDTH 15 0
BBX 31 44 -8 -8
BITMAP
00000078
00000070
000000F0
000000E0
000001E0
000001C0
000003C0
00000380
00000700
00000700
00000E00
00001E00
00001C00
00003C00
00003800
00007800
00007000
0000F000
0000E000
0001E000
0001C000
00038000
00038000
00070000
00070000
000E0000
001E0000
001C0000
003C0000
00380000
00780000
00700000
00F00000
00E00000
01C00000
01C00000
03800000
03800000
07000000
0F000000
0E000000
1E000000
1C000000
3C000000
ENDCHAR

STARTCHAR zero
ENCODING 48
SWIDTH 500 0
DWIDTH 25 0
BBX 25 36 1 -1
BITMAP
000F8000
003FE000
00F07000
01E03800
01C03800
03801C00
07801C00
07001E00
0F001E00
0E001E00
1E001E00
1E001E00
1E001E00
3C001E00
3C001E00
3C001E00
3C001E00
3C001E00
78003C00
78003C00
78003C00
78003C00
78003C00
78007800
78007800
78007800
7800F000
7800F000
3800E000
3801E000
3801C000
1C03C000
1C078000
0F0F0000
07FC0000
00F00000
ENDCHAR

STARTCHAR one
ENCODING 49
SWIDTH 500 0
DWIDTH 25 0
BBX 20 35 2 0
BITMAP
000180
000780
003F80
01FF80
1FCF00
1E0F00
180F00
000F00
000F00
001E00
001E00
001E00
001E00
001E00
001C00
001C00
003C00
003C00
003C00
003C00
003800
003800
007800
007800
007800
007800
007800
00F000
00F000
00F000
00F000
00F000
01F800
3FFF80
7FFFC0
ENDCHAR

STARTCHAR two
ENCODING 50
SWIDTH 500 0
DWIDTH 25 0
BBX 24 35 0 0
BITMAP
003F80
00FFE0
01FFF0
03C1F8
0300F8
06007C
04003C
0C003C
08003C
00003C
00003C
00003C
000078
000078
000070
0000F0
0000E0
0001C0
0001C0
000380
000700
000E00
000C00
001800
003000
006000
00C000
018000
030000
070000
060000
0C0004
1FFFFC
3FFFF8
7FFFF8
ENDCHAR

STARTCHAR three
ENCODING 51
SWIDTH 500 0
DWIDTH 25 0
BBX 25 36 -1 -1
BITMAP
000FE000
003FF800
007FFC00
00F07C00
00C03E00
01801E00
01001E00
00001E00
00001E00
00001C00
00001C00
00003800
00007000
0000E000
00038000
007F0000
00FFE000
0001F800
00007C00
00003E00
00003E00
00001E00
00001E00
00001E00
00001E00
00001E00
18001E00
10003C00
10003C00
10003800
18007800
3800F000
3C01E000
3E078000
1FFF0000
03F80000
ENDCHAR

STARTCHAR four
ENCODING 52
SWIDTH 500 0
DWIDTH 25 0
BBX 27 35 -1 0
BITMAP
00000C00
00003C00
00007C00
0000FC00
0000F800
0001B800
00033800
00067800
000E7800
000C7000
00187000
00307000
00707000
0060F000
00C0F000
0180E000
0180E000
0300E000
0600E000
0E01E000
0C01E000
1801C000
3FFFFF80
3FFFFF80
3FFFFF00
0003C000
0003C000
0003C000
00038000
00038000
00078000
00078000
00078000
01FFFC00
03FFFE00
ENDCHAR

STARTCHAR five
ENCODING 53
SWIDTH 500 0
DWIDTH 25 0
BBX 27 35 -2 -1
BITMAP
007FFF80
007FFF80
00FFFF00
00FFFF00
00C00000
00C00000
00C00000
00800000
01800000
01800000
01800000
01800000
01000000
031FC000
037FF000
03C1F800
03007C00
02003E00
00003E00
00001E00
00001E00
00001E00
00001E00
00001E00
00001E00
00003E00
10003C00
10003C00
10007800
30007000
3800F000
3C01C000
3E078000
1FFE0000
03F80000
ENDCHAR

STARTCHAR six
ENCODING 54
SWIDTH 500 0
DWIDTH 25 0
BBX 23 36 2 -1
BITMAP
0001FC
0007FC
000F08
003800
007000
00E000
00C000
01C000
038000
078000
070000
0F0000
0E0000
1E0000
1E1F00
1C7FC0
3CFFE0
3D81F0
3F00F0
3E00F8
7C0078
7C0078
7C0078
780078
780078
780078
780070
780070
7800F0
7800E0
3C01C0
3C01C0
1E0380
1F8E00
0FFC00
03F000
ENDCHAR

STARTCHAR seven
ENCODING 55
SWIDTH 500 0
DWIDTH 25 0
BBX 25 34 3 0
BITMAP
1FFFFF00
1FFFFF00
1FFFFE00
1FFFFC00
00000C00
00001800
00003800
00003000
00006000
00006000
0000C000
0001C000
00018000
00030000
00030000
00060000
000C0000
000C0000
00180000
00180000
00300000
00600000
00600000
00C00000
01800000
01800000
03000000
06000000
06000000
0C000000
1C000000
18000000
30000000
70000000
ENDCHAR

STARTCHAR eight
ENCODING 56
SWIDTH 500 0
DWIDTH 25 0
BBX 24 36 1 -1
BITMAP
0007E0
001FF8
0070FC
00C03C
01C01E
01801E
03801E
03001E
07001E
07001C
07803C
078038
07C070
03E0E0
03F1C0
01FF00
00FF00
003FC0
00EFE0
0183F0
0701F0
0E00F8
1C00F8
1C0078
380078
380078
780078
780070
780070
7800E0
7800E0
3C01C0
3C0380
1F0F00
0FFC00
03F000
ENDCHAR

STARTCHAR nine
ENCODING 57
SWIDTH 500 0
DWIDTH 25 0
BBX 25 36 1 -1
BITMAP
000FC000
003FF000
00F1F800
01C07800
03803C00
07003C00
07001E00
0F001E00
0E001E00
0E001E00
1E001E00
1E001E00
1E001E00
1E001E00
1E003E00
1F003E00
0F007E00
0F80DC00
0FC1BC00
07FF3C00
03FE3C00
00F83800
00003800
00007800
00007000
00007000
0000E000
0000E000
0001C000
0001C000
60038000
20070000
300E0000
3C3C0000
1FF00000
1FC00000
ENDCHAR

STARTCHAR colon
ENCODING 58
SWIDTH 250 0
DWIDTH 13 0
BBX 12 25 1 -1
BITMAP
0380
03C0
07C0
07C0
07C0
0380
0000
0000
0000
0000
0000
0000
0000
0000
0000
0000
0000
0000
0000
1C00
1E00
3E00
3E00
3E00
1C00
ENDCHAR

STARTCHAR semicolon
ENCODING 59
SWIDTH 250 0
DWIDTH 13 0
BBX 15 31 -3 -7
BITMAP
0070
0078
00F8
00F8
00F8
0070
0000
0000
0000
0000
0000
0000
0000
0000
0000
0000
0000
0000
0060
03E0
03C0
03C0
0380
0780
0700
0700
0E00
0C00
1800
3800
3000
ENDCHAR

STARTCHAR less
ENCODING 60
SWIDTH 606 0
DWIDTH 30 0
BBX 28 24 1 5
BITMAP
000001C0
000007C0
00001FC0
00007F80
0001FE00
000FF800
003FC000
00FF0000
03FC0000
0FF00000
3FC00000
3F000000
3F000000
3FE00000
0FF80000
01FE0000
007F8000
001FE000
0007F800
0001FF00
00003FC0
00000FC0
000003C0
000000C0
ENDCHAR

STARTCHAR equal
ENCODING 61
SWIDTH 606 0
DWIDTH 30 0
BBX 28 11 1 12
BITMAP
3FFFFFC0
3FFFFFC0
3FFFFFC0
00000000
00000000
00000000
00000000
00000000
3FFFFFC0
3FFFFFC0
3FFFFFC0
ENDCHAR

STARTCHAR greater
ENCODING 62
SWIDTH 606 0
DWIDTH 30 0
BBX 28 25 1 5
BITMAP
20000000
38000000
3E000000
3F800000
1FF00000
03FC0000
00FF0000
003FC000
000FF000
0003FE00
0000FF80
00001FC0
000007C0
00000FC0
00003FC0
0000FF00
0003FC00
001FE000
007F8000
01FE0000
07F80000
1FE00000
3F000000
3C000000
30000000
ENDCHAR

STARTCHAR question
ENCODING 63
SWIDTH 500 0
DWIDTH 25 0
BBX 19 36 5 -1
BITMAP
03F000
0FFE00
0FFF00
1C1F00
180F80
300780
200780
000780
000780
000780
000F00
001F00
001E00
003C00
007800
00F000
01E000
03C000
038000
070000
060000
0C0000
0C0000
0C0000
040000
020000
000000
000000
000000
000000
1C0000
1E0000
3E0000
3E0000
3E0000
1C0000
ENDCHAR

STARTCHAR at
ENCODING 64
SWIDTH 747 0
DWIDTH 37 0
BBX 40 40 0 -5
BITMAP
00007FC000
0003C03800
000E000600
0038000300
0060000080
00C0000040
0180000060
0300000020
0600000010
0E00000010
0C001F1818
1C0031B808
1800E0B808
3801C07808
3003807008
3003007008
300700F008
600E00E008
600E00E018
601C00E018
601C01E010
603C01C030
603803C020
603807C060
60380F8040
20381B80C0
303C338180
303FE38706
301F83FC04
180F00F00C
1800000008
0C00000018
0600000030
0700000060
03800000C0
01C0000180
0060000700
0038001C00
000F80F000
0001FF8000
ENDCHAR

STARTCHAR A
ENCODING 65
SWIDTH 722 0
DWIDTH 36 0
BBX 38 35 -3 0
BITMAP
000000E000
000000E000
000001E000
000003E000
000003F000
000007F000
000006F000
00000CF000
00001C7000
0000187800
0000387800
0000307800
0000607800
0000E03800
0000C03800
0001C03C00
0001803C00
0003803C00
0007003C00
0007FFFC00
000FFFFE00
000C001E00
001C001E00
0038001E00
0030000E00
0070000F00
0060000F00
00E0000F00
01C0000F00
01C0000F00
0380000F00
0380000780
0780000780
3FF0007FF0
3FF800FFF8
ENDCHAR

STARTCHAR B
ENCODING 66
SWIDTH 611 0
DWIDTH 31 0
BBX 29 35 0 0
BITMAP
07FFFC00
03FFFF80
00780FC0
007803E0
007803E0
007801E0
007001E0
00F001E0
00F001E0
00F001E0
00F003C0
00E003C0
00E00780
00E00F00
01E01E00
01E07800
01FFE000
01FFFC00
01C03F00
01C00F80
03C007C0
03C007C0
03C003C0
038003C0
038003C0
078003C0
078003C0
07800780
07800780
07000F00
07000E00
0F001C00
0F007800
3FFFE000
7FFF0000
ENDCHAR

STARTCHAR C
ENCODING 67
SWIDTH 667 0
DWIDTH 33 0
BBX 34 36 1 -1
BITMAP
00007FF000
0003FFFF00
000F80FF00
003C001F00
0070000700
00E0000300
01C0000200
03C0000200
0780000200
0700000000
0F00000000
0F00000000
1E00000000
1E00000000
1E00000000
3E00000000
3C00000000
3C00000000
3C00000000
3C00000000
3C00000000
3C00000000
3C00000000
3E00000000
3E00000000
3E00000000
1F00000000
1F00000000
1F80000000
0F80000000
07E0000C00
03F0003C00
01FC01F000
00FFFFE000
003FFF0000
0007F80000
ENDCHAR

STARTCHAR D
ENCODING 68
SWIDTH 778 0
DWIDTH 39 0
BBX 37 35 0 0
BITMAP
0FFFFFE000
03FFFFFC00
00F801FE00
00F8003F00
00F0000F80
00F00007C0
00F00007E0
00F00003E0
00F00003E0
00F00001E0
00E00001F0
01E00001F0
01E00001F0
01E00001F0
01E00001F0
01E00001F0
01C00001F0
03C00001E0
03C00001E0
03C00001E0
03C00003E0
03C00003C0
03800003C0
0380000780
0780000780
0780000F00
0780000E00
0780001E00
0780003C00
0F00007800
0F0000F000
0F0001C000
0FC00F8000
3FFFFE0000
7FFFE00000
ENDCHAR

STARTCHAR E
ENCODING 69
SWIDTH 611 0
DWIDTH 31 0
BBX 30 35 0 0
BITMAP
07FFFFF8
01FFFFF0
003C0030
003C0030
003C0030
007C0030
00780030
00780030
00780000
00780000
00780000
00780000
00F00000
00F00000
00F00000
00F00000
00FFFF00
00FFFF00
00E00000
01E00000
01E00000
01E00000
01E00000
01C00000
03C00000
03C00000
03C00000
03C00020
03C00060
07C00060
07800060
07800060
078000C0
1FFFFFC0
3FFFFFC0
ENDCHAR

STARTCHAR F
ENCODING 70
SWIDTH 556 0
DWIDTH 28 0
BBX 30 35 0 0
BITMAP
03FFFFF0
01FFFFF0
003C0070
003C0030
003C0030
003C0030
00380020
00780020
00780000
00780000
00780000
00780000
00700000
00F00000
00F00000
00F00000
00F00000
00F00000
00FFFF00
01FFFF00
01E00000
01E00000
01E00000
01E00000
01E00000
03C00000
03C00000
03C00000
03C00000
03C00000
03C00000
07C00000
07C00000
0FE00000
7FFC0000
ENDCHAR

STARTCHAR G
ENCODING 71
SWIDTH 722 0
DWIDTH 36 0
BBX 36 36 1 -1
BITMAP
00003FE000
0001FFFF00
000FFFFF80
001E003F80
0078000700
00F0000300
01E0000300
03C0000300
0780000300
0700000000
0F00000000
0F00000000
1E00000000
1E00000000
3E00000000
3C00000000
3C00000000
3C00000000
3C00000000
7C00000000
7C00000000
7C00000000
7C0007FFC0
7C00007F00
7C00001E00
3C00000E00
3E00001E00
3E00001E00
1F00001E00
1F00001E00
0F80001C00
0FC0001C00
07F0003C00
01FE03FC00
007FFFC000
001FFE0000
ENDCHAR

STARTCHAR H
ENCODING 72
SWIDTH 778 0
DWIDTH 39 0
BBX 43 34 -1 0
BITMAP
03FFE007FF80
003E0000FC00
003E00007800
003C00007800
003C0000F800
003C0000F000
003C0000F000
00380000F000
00380000F000
00780000F000
00780000E000
00780001E000
00780001E000
00780001E000
00700001E000
00FFFFFFC000
00FFFFFFC000
00F00003C000
00F00003C000
00F00003C000
00E00003C000
01E00003C000
01E000038000
01E000078000
01E000078000
01E000078000
01C000078000
03C000078000
03C0000F0000
03C0000F0000
03C0000F0000
07C0000F0000
07E0001F8000
7FFC01FFF800
ENDCHAR

STARTCHAR I
ENCODING 73
SWIDTH 333 0
DWIDTH 17 0
BBX 21 35 -1 0
BITMAP
03FFE0
03FFE0
003E00
003E00
003C00
003C00
003C00
003C00
003800
003800
007800
007800
007800
007800
007800
007000
00F000
00F000
00F000
00F000
00F000
00E000
01E000
01E000
01E000
01E000
01E000
03C000
03C000
03C000
03C000
03C000
07C000
0FE000
7FFC00
ENDCHAR

STARTCHAR J
ENCODING 74
SWIDTH 333 0
DWIDTH 17 0
BBX 23 46 -3 -11
BITMAP
00FFF8
00FFF8
000FC0
000F80
000F80
000F00
000F00
000F00
000F00
000F00
000F00
000F00
001E00
001E00
001E00
001E00
001E00
001E00
001E00
003C00
003C00
003C00
003C00
003C00
003C00
007C00
007800
007800
007800
007800
007800
00F800
00F000
00F000
00F000
00F000
00F000
00E000
01E000
01E000
01C000
03C000
038000
070000
3E0000
180000
ENDCHAR

STARTCHAR K
ENCODING 75
SWIDTH 667 0
DWIDTH 33 0
BBX 36 35 0 0
BITMAP
03FFE00FC0
03FFE00FC0
003E001E00
003C003C00
003C007800
003C00F000
003C01E000
003803C000
0078038000
0078070000
00780C0000
0078180000
0078300000
0070600000
00F1C00000
00F3800000
00F7000000
00FF800000
00FF800000
00F7C00000
01E3E00000
01E1F00000
01E0F80000
01E07C0000
01E07C0000
01E03E0000
03C01F0000
03C00F8000
03C007C000
03C003E000
03C003E000
07C001F000
07C000F800
0FF0007E00
7FFC007F00
ENDCHAR

STARTCHAR L
ENCODING 76
SWIDTH 556 0
DWIDTH 28 0
BBX 28 35 0 0
BITMAP
07FFC000
07FFC000
007C0000
00780000
00780000
00780000
00780000
00700000
00700000
00F00000
00F00000
00F00000
00F00000
00F00000
00E00000
01E00000
01E00000
01E00000
01E00000
01E00000
01C00000
01C00000
03C00000
03C00000
03C00000
03C00000
03C00000
038000C0
078000C0
078000C0
078000C0
07800180
0F800380
3FFFFF80
3FFFFF80
ENDCHAR

STARTCHAR M
ENCODING 77
SWIDTH 944 0
DWIDTH 47 0
BBX 51 36 -2 -1
BITMAP
007F8000003FC0
007F8000007FC0
000F8000007C00
0007C00000FC00
0007C00001F800
0007C00001F800
0007C00003F800
000FE000037800
000DE000077800
000DE000067800
000DF0000E7800
001CF0001C7800
0018F000187800
0018F000387800
00387800307800
00307800707800
00307800E07000
00307800C07000
00703C01C07000
00603C0180F000
00603C0380F000
00E01E0300F000
00E01E0600F000
00C01E0E00F000
00C01E0C00F000
01C00F1C00F000
01800F3800F000
01800F3000F000
03800F7000F000
038007E000F000
030007E000E000
070007C000E000
0700038001F000
1FC0038007FC00
7FF803001FFF00
00000300000000
ENDCHAR

STARTCHAR N
ENCODING 78
SWIDTH 778 0
DWIDTH 39 0
BBX 43 36 -1 -1
BITMAP
07F80001FFC0
07FC0001FFC0
007E00001C00
003E00001C00
001F00001800
001F00001800
003F80003800
003780003800
0033C0003800
0033E0003000
0031E0003000
0031F0003000
0060F0003000
0060F8007000
006078007000
00603C006000
00603E006000
00E01E006000
00C01F006000
00C00F00E000
00C00780C000
00C007C0C000
00C003C0C000
01C001E0C000
018001E0C000
018000F1C000
018000F98000
018000798000
0380007D8000
0380003D8000
0380001F8000
0300001F8000
0700000F0000
0FC0000F0000
3FF800070000
000000070000
ENDCHAR

STARTCHAR O
ENCODING 79
SWIDTH 778 0
DWIDTH 39 0
BBX 38 36 1 -1
BITMAP
00003FE000
0003FFFC00
000F807F00
001C001F80
00780007C0
00F00003C0
01E00003E0
01C00001E0
03800001F0
07800001F0
07000000F0
0F000000F0
0F000000F0
1E000000F0
1E000000F0
1E000000F0
1E000000F0
3E000000F0
3C000000F0
3C000001F0
3C000001E0
3C000001E0
3C000001E0
3C000003C0
3C000003C0
3C00000380
3E00000780
3E00000F00
1E00000E00
1F00001C00
0F80003C00
0FC0007000
07E001E000
03FC07C000
00FFFF0000
001FF00000
ENDCHAR

STARTCHAR P
ENCODING 80
SWIDTH 611 0
DWIDTH 31 0
BBX 32 34 0 1
BITMAP
03FFFF80
00FFFFE0
003E03F8
003E00F8
003C007C
003C007C
003C003C
003C003C
003C003C
0078003C
0078003C
0078007C
00780078
00780078
007000F0
00F001E0
00F003C0
00F20780
00F3FF00
00F0F800
00E00000
01E00000
01E00000
01E00000
01E00000
01E00000
03C00000
03C00000
03C00000
03C00000
03C00000
07C00000
07E00000
7FFE0000
ENDCHAR

STARTCHAR Q
ENCODING 81
SWIDTH 778 0
DWIDTH 39 0
BBX 38 45 1 -10
BITMAP
00003FE000
0003FFFC00
000F807F00
001C001F80
00780007C0
00F00003C0
01E00003E0
01C00001E0
03800001F0
07800001F0
07000000F0
0F000000F0
0F000000F0
1E000000F0
1E000000F0
1E000000F0
1E000000F0
3E000000F0
3C000000F0
3C000001F0
3C000001E0
3C000001E0
3C000001E0
3C000003C0
3C000003C0
3E00000380
3E00000780
3E00000F00
1E00000E00
1F00001C00
0F80003800
0FC0007000
07E001E000
03FC07C000
00FFFF0000
001FF00000
007E000000
01FFC00000
0187F00040
0300FC0040
02003F80C0
02001FE0C0
020007FF80
000001FF00
0000003E00
ENDCHAR

STARTCHAR R
ENCODING 82
SWIDTH 667 0
DWIDTH 33 0
BBX 35 35 -1 0
BITMAP
03FFFF8000
01FFFFF000
001E01F800
001E00F800
001E007C00
001E003C00
003E003C00
003C003C00
003C003C00
003C003C00
003C007800
003C007800
003800F000
007801E000
007803C000
00780F0000
0079FC0000
0079F00000
0070F80000
00F0780000
00F07C0000
00F03E0000
00F01E0000
00F00F0000
00E00F8000
01E0078000
01E007C000
01E003E000
01E001E000
01E001F000
03E000F800
03C0007800
03E0007C00
3FFE003F80
3FFE003F80
ENDCHAR

STARTCHAR S
ENCODING 83
SWIDTH 556 0
DWIDTH 28 0
BBX 27 35 1 -1
BITMAP
0003FE00
000FFF80
003C0F80
00700380
00E00100
01C00100
03800100
03800300
03800000
07800000
07800000
07800000
07C00000
07C00000
03F00000
03FF0000
01FFF000
007FFC00
001FFE00
0001FE00
00003F00
00001F00
00000F00
00000F00
00000F00
00000F00
18000E00
10000E00
10001C00
10001C00
10003800
3C00F000
3F83C000
1FFF8000
07FC0000
ENDCHAR

STARTCHAR T
ENCODING 84
SWIDTH 611 0
DWIDTH 31 0
BBX 32 35 2 0
BITMAP
3FFFFFFE
3FFFFFFC
3803C01C
3003C00C
3003C00C
3003C00C
2003C00C
2003C008
00078000
00078000
00078000
00078000
00078000
00078000
00070000
000F0000
000F0000
000F0000
000F0000
000F0000
000E0000
001E0000
001E0000
001E0000
001E0000
001E0000
001E0000
003C0000
003C0000
003C0000
003C0000
003C0000
007C0000
07FFC000
07FFE000
ENDCHAR

STARTCHAR U
ENCODING 85
SWIDTH 778 0
DWIDTH 39 0
BBX 39 36 3 -1
BITMAP
3FC000FFF8
1FC0003FE0
03C0000F80
03C0000F80
03C0000F00
0780000F00
0780000F00
0780000F00
0780000F00
0780000E00
0700000E00
0700001E00
0F00001E00
0F00001E00
0F00001E00
0F00001E00
0E00001C00
0E00001C00
1E00003C00
1E00003C00
1E00003C00
1E00003C00
1E00003800
1C00003800
3C00007800
3C00007800
3C00007800
3C0000F800
3C0001F000
3C00037000
3E000EF000
1F001CF000
1FC0F0F000
0FFFE0FC00
03FF80FF00
007C000000
ENDCHAR

STARTCHAR V
ENCODING 86
SWIDTH 722 0
DWIDTH 36 0
BBX 36 36 4 -1
BITMAP
7FFC00FFC0
1FF0003F80
07C0000F00
07C0000E00
03C0000E00
03C0001C00
03C0001800
03C0003800
03C0003000
03C0007000
01C0006000
01E000E000
01E000C000
01E0018000
01E0018000
01E0030000
01E0070000
00E0060000
00F00E0000
00F00C0000
00F0180000
00F0380000
00F0300000
00F0700000
0070600000
0078C00000
0078C00000
0079800000
007B800000
007B000000
007F000000
007E000000
003C000000
003C000000
0038000000
0038000000
ENDCHAR

STARTCHAR W
ENCODING 87
SWIDTH 944 0
DWIDTH 47 0
BBX 46 36 4 -1
BITMAP
7FF801803FF0
1FE001800FE0
07C003800380
078003800380
078007800700
078007800700
078007800600
07800F800600
07800F800E00
07801BC00C00
07801BC00C00
078033C01800
078073C01800
078063C03800
0780E1C03000
0780C1C03000
0781C1E06000
078181E06000
078381E06000
078301E0C000
078600E0C000
078600E1C000
078C00F18000
078C00F18000
079800F30000
07B800F30000
07B000770000
07F0007E0000
07E0007E0000
07E0007E0000
07C0007C0000
07C0007C0000
0780007C0000
078000780000
070000380000
070000300000
ENDCHAR

STARTCHAR X
ENCODING 88
SWIDTH 722 0
DWIDTH 36 0
BBX 38 35 0 0
BITMAP
07FFC03FF8
07FFC07FF8
007C0007C0
003C000780
003E000F00
001E000E00
001F001C00
000F003800
0007807000
0007806000
0003C0C000
0003C1C000
0001E38000
0001E70000
0000FE0000
0000FC0000
0000780000
00007C0000
00007C0000
0000FE0000
0001DE0000
00018F0000
00030F0000
0006078000
000E07C000
001C03C000
001803E000
003001E000
007001F000
00E000F000
01C000F800
0380007800
0780007C00
1FE0007E00
7FF807FFC0
ENDCHAR

STARTCHAR Y
ENCODING 89
SWIDTH 667 0
DWIDTH 33 0
BBX 35 35 2 0
BITMAP
0700000080
0FC0000380
3FE0000F80
3FE0001F80
01F0003C00
00F0007800
00F800E000
007800C000
007C01C000
003C038000
003C030000
001E060000
001E0E0000
001E0C0000
000F180000
000F180000
000F300000
0007300000
0007E00000
0007E00000
0007C00000
0003C00000
0003C00000
0003800000
0007800000
0007800000
0007800000
0007800000
0007800000
0007000000
000F000000
000F000000
000F000000
003FE00000
01FFF00000
ENDCHAR

STARTCHAR Z
ENCODING 90
SWIDTH 667 0
DWIDTH 33 0
BBX 34 35 0 0
BITMAP
03FFFFFF00
03FFFFFF00
0380003E00
0300007C00
0300007800
030000F800
020001F000
020003E000
000003C000
0000078000
00000F8000
00001F0000
00003E0000
00003C0000
0000780000
0000F80000
0001F00000
0001E00000
0003C00000
0007C00000
000F800000
001F000000
001E000000
003C000000
007C000000
00F8000000
01F0000000
01E0000600
03C0000600
07C0000C00
0F80000C00
1F00000C00
1E00003C00
3FFFFFFC00
7FFFFFFC00
ENDCHAR

STARTCHAR bracketleft
ENCODING 91
SWIDTH 333 0
DWIDTH 17 0
BBX 20 44 1 -8
BITMAP
00FFC0
00FFC0
00F800
00F000
00F000
00F000
00F000
00E000
00E000
01E000
01E000
01E000
01E000
01C000
01C000
01C000
03C000
03C000
03C000
03C000
038000
038000
038000
078000
078000
078000
070000
070000
070000
0F0000
0F0000
0F0000
0F0000
0E0000
0E0000
1E0000
1E0000
1E0000
1E0000
1E0000
1C0000
3E0000
3FC000
3FF000
ENDCHAR

STARTCHAR backslash
ENCODING 92
SWIDTH 606 0
DWIDTH 30 0
BBX 16 44 7 -8
BITMAP
3C00
3C00
3C00
1C00
1C00
1C00
1E00
1E00
0E00
0E00
0E00
0F00
0F00
0700
0700
0700
0780
0780
0380
0380
0380
03C0
03C0
01C0
01C0
01C0
01E0
01E0
00E0
00E0
00E0
00F0
00F0
0070
0070
0070
0078
0078
0038
0038
0038
003C
003C
001C
ENDCHAR

STARTCHAR bracketright
ENCODING 93
SWIDTH 333 0
DWIDTH 17 0
BBX 20 44 -3 -8
BITMAP
00FFC0
00FFC0
0007C0
000780
000780
000780
000780
000780
000700
000700
000700
000F00
000F00
000F00
000F00
000E00
000E00
000E00
001E00
001E00
001E00
001C00
001C00
001C00
003C00
003C00
003C00
003C00
003800
003800
003800
007800
007800
007800
007800
007000
007000
00F000
00F000
00F000
00F000
01F000
0FF000
3FE000
ENDCHAR

STARTCHAR asciicircum
ENCODING 94
SWIDTH 606 0
DWIDTH 30 0
BBX 28 20 1 15
BITMAP
00070000
000F0000
001F8000
001FC000
0039C000
0039E000
0070E000
00707000
00E07000
01E03800
01C03800
03801C00
03801E00
07000E00
07000700
0E000700
0E000380
1C000380
380001C0
380000C0
ENDCHAR

STARTCHAR underscore
ENCODING 95
SWIDTH 500 0
DWIDTH 25 0
BBX 29 3 -2 -6
BITMAP
3FFFFFE0
3FFFFFE0
3FFFFFE0
ENDCHAR

STARTCHAR quoteleft
ENCODING 96
SWIDTH 278 0
DWIDTH 14 0
BBX 12 12 3 24
BITMAP
00C0
01C0
0180
0300
0700
0F00
0E00
1E00
1E00
3C00
3C00
6000
ENDCHAR

STARTCHAR a
ENCODING 97
SWIDTH 444 0
DWIDTH 22 0
BBX 23 25 0 -1
BITMAP
000FE8
007FF8
00E1F8
018070
038070
070070
0700F0
0E00E0
0E00E0
0E00E0
1C01E0
1C01E0
1C03C0
3C03C0
3807C0
3805C0
380BC0
381380
783380
786380
78C78C
7B8798
7F07E0
3C07C0
380700
ENDCHAR

STARTCHAR b
ENCODING 98
SWIDTH 463 0
DWIDTH 23 0
BBX 22 37 1 -1
BITMAP
006000
03E000
3FC000
03C000
03C000
03C000
038000
038000
078000
078000
070000
070000
0701E0
0707F0
0F0FF8
0E3878
0E6078
0EC078
0F8078
1F0078
1F0078
1E0070
1E0070
1C0070
1C0070
3C00E0
3C00E0
3800C0
3801C0
380180
780380
780300
780600
7C0C00
3E1800
3FE000
0F8000
ENDCHAR

STARTCHAR c
ENCODING 99
SWIDTH 407 0
DWIDTH 20 0
BBX 21 25 1 -1
BITMAP
000FC0
003FE0
00E1E0
038060
070060
060040
0E0040
1C0000
1C0000
1C0000
3C0000
380000
380000
380000
780000
780000
780000
780000
780000
7800C0
3C0300
3E0E00
1FFC00
1FF000
07C000
ENDCHAR

STARTCHAR d
ENCODING 100
SWIDTH 500 0
DWIDTH 25 0
BBX 26 37 0 -1
BITMAP
00000180
00001F00
0000FF00
00000F00
00000F00
00000E00
00001E00
00001E00
00001E00
00001C00
00001C00
00001C00
000FFC00
003FFC00
00C0F800
01803800
03003800
07003800
07007000
0E007000
0E007000
1E007000
1C00F000
1C00E000
3C01E000
3C01E000
3803E000
3802E000
3805E000
780DC000
7819C000
7831C200
7861C600
79C3DC00
3F83F000
3E03E000
3C038000
ENDCHAR

STARTCHAR e
ENCODING 101
SWIDTH 389 0
DWIDTH 19 0
BBX 20 25 0 -1
BITMAP
000F80
003FC0
00E3E0
0181E0
0301E0
0701E0
0E01C0
0E01C0
1E0380
1C0700
1C1C00
3C7000
3FC000
3C0000
380000
780000
780000
780000
780000
780080
780380
3C0600
3F1C00
1FF000
0FC000
ENDCHAR

STARTCHAR f
ENCODING 102
SWIDTH 278 0
DWIDTH 14 0
BBX 32 50 -9 -14
BITMAP
0000007C
000000FE
000003FC
0000061C
00000C00
00001C00
00003800
00003800
00007800
00007800
00007800
00007000
0000F000
0000F000
0000F000
0003FF80
000FFF80
0000E000
0001E000
0001E000
0001C000
0001C000
0001C000
0003C000
0003C000
00038000
00038000
00038000
00038000
00078000
00070000
00070000
00070000
00070000
000E0000
000E0000
000E0000
000C0000
000C0000
001C0000
001C0000
00180000
00180000
00300000
00200000
10600000
18C00000
1F800000
3F000000
3C000000
ENDCHAR

STARTCHAR g
ENCODING 103
SWIDTH 499 0
DWIDTH 25 0
BBX 29 38 -3 -14
BITMAP
0001F000
000FFC00
00183E00
00301FE0
00600FE0
00E00F00
01C00F00
01C00F00
01C00F00
01C00F00
03C00E00
03C00E00
03C01C00
01C01800
01E03800
00F06000
00FFC000
001E0000
00060000
000C0000
001C0000
001E0000
001F0000
003FC000
00FFE000
03C3F000
0701F800
0E007C00
1C003C00
1C001E00
38000E00
38000E00
38000E00
38001C00
3C001800
1E007000
0FC1E000
03FF0000
ENDCHAR

STARTCHAR h
ENCODING 104
SWIDTH 500 0
DWIDTH 25 0
BBX 27 37 -1 -1
BITMAP
00180000
01F80000
0FF80000
00F00000
00F00000
00F00000
00F00000
00E00000
00E00000
00E00000
01E00000
01E00000
01C00F00
01C03F00
01C0FF00
03C1CF00
03C30F00
03860F00
038C0E00
03981E00
07B01E00
07E01E00
07401C00
07C01C00
07803C00
0F003C00
0F003800
0F003800
0E007800
0E007800
1E007000
1C007000
1C00F180
1C00F300
3C00FE00
3C00F800
3000E000
ENDCHAR

STARTCHAR i
ENCODING 105
SWIDTH 278 0
DWIDTH 14 0
BBX 14 36 0 -1
BITMAP
0070
0078
00F8
00F0
0070
0000
0000
0000
0000
0000
0000
00E0
03E0
07E0
19E0
31E0
01C0
01C0
03C0
03C0
0380
0380
0380
0780
0700
0700
0700
0F00
0E00
0E00
0E00
1E30
1E60
1F80
1F00
1C00
ENDCHAR

STARTCHAR j
ENCODING 106
SWIDTH 278 0
DWIDTH 14 0
BBX 20 50 -6 -14
BITMAP
0001C0
0001E0
0003E0
0003C0
0001C0
000000
000000
000000
000000
000000
000000
000000
000380
000F80
001F80
006780
00C780
000700
000700
000700
000F00
000F00
000E00
000E00
000E00
000E00
001E00
001C00
001C00
001C00
003C00
003800
003800
003800
003800
007800
007000
007000
007000
006000
006000
00E000
00E000
00C000
00C000
008000
218000
330000
3E0000
3C0000
ENDCHAR

STARTCHAR k
ENCODING 107
SWIDTH 444 0
DWIDTH 22 0
BBX 25 37 -1 -1
BITMAP
00180000
03F00000
0FF00000
00F00000
00F00000
00F00000
00E00000
00E00000
01E00000
01E00000
01C00000
01C00000
01C00E00
03C03E00
03C07C00
0380E000
03818000
03830000
07860000
070C0000
07180000
07380000
07780000
0F7C0000
0EBC0000
0F1C0000
0F1E0000
0E1E0000
1E0E0000
1C0F0000
1C0F0000
1C070000
1C078000
3C078C00
3C03F000
3803E000
30018000
ENDCHAR

STARTCHAR l
ENCODING 108
SWIDTH 278 0
DWIDTH 14 0
BBX 13 37 1 -1
BITMAP
0020
03E0
1FE0
01E0
01E0
01C0
01C0
01C0
03C0
03C0
0380
0380
0380
0780
0780
0700
0700
0700
0F00
0F00
0E00
0E00
0E00
1E00
1C00
1C00
1C00
1C00
3C00
3C00
3800
3820
3840
7980
7F00
7C00
7000
ENDCHAR

STARTCHAR m
ENCODING 109
SWIDTH 778 0
DWIDTH 39 0
BBX 39 25 0 -1
BITMAP
01E01E0070
03E03E03F0
0FE0FE07F0
1BC19E0CF0
31C21E30F0
01C41C60E0
01C81C40E0
03D01C80E0
03B01D01E0
03A01E01C0
03C03E01C0
03C03C01C0
03803C01C0
0780380380
0780380380
0700780380
0700700380
0700700700
0E00700700
0E00F00700
0E00F00F18
1E00E00F30
1E00E00FC0
1C01E00F80
1801800E00
ENDCHAR

STARTCHAR n
ENCODING 110
SWIDTH 556 0
DWIDTH 28 0
BBX 27 25 0 -1
BITMAP
01C00F00
07C03F00
0FC0FF00
1BC1CF00
63C30F00
43C60E00
038C0E00
03980E00
03B01E00
03E01C00
07401C00
07C01C00
07803C00
07803800
07003800
0F003800
0F007800
0E007800
0E007000
1E007000
1E00F180
1E00F300
1C00FE00
1C00F800
3800E000
ENDCHAR

STARTCHAR o
ENCODING 111
SWIDTH 444 0
DWIDTH 22 0
BBX 22 25 0 -1
BITMAP
001F80
007FE0
01C1E0
0380F0
070078
0E0078
0E0078
1C0078
1C0078
3C0078
3C0078
380078
380070
780070
7800F0
7800F0
7800E0
7801E0
7801C0
780180
3C0300
3C0700
1E0C00
1FF800
07E000
ENDCHAR

STARTCHAR p
ENCODING 112
SWIDTH 500 0
DWIDTH 25 0
BBX 27 38 -3 -14
BITMAP
00700700
01F03F80
03F07FC0
0CF1C3C0
18F303C0
00F603C0
00E403C0
00E803C0
00F803C0
00F00380
01F00380
01E00780
01E00780
01C00700
01C00700
03C00F00
03C00E00
03801E00
03801C00
03803800
03803000
07806000
07E1C000
07FF0000
07FC0000
07000000
0F000000
0F000000
0E000000
0E000000
0E000000
1E000000
1E000000
1C000000
1C000000
1C000000
3C000000
3C000000
ENDCHAR

STARTCHAR q
ENCODING 113
SWIDTH 463 0
DWIDTH 23 0
BBX 23 38 0 -14
BITMAP
001FCC
007FF8
00E1F8
018078
030038
070078
060070
0E0070
0E0070
1C00F0
1C00F0
1C00E0
3C01E0
3801E0
3803E0
3807E0
7805C0
7809C0
7811C0
7821C0
7843C0
7983C0
7F0380
3E0380
380380
000780
000780
000700
000700
000700
000F00
000F00
000F00
000E00
000E00
001E00
001E00
001E00
ENDCHAR

STARTCHAR r
ENCODING 114
SWIDTH 389 0
DWIDTH 19 0
BBX 21 25 0 -1
BITMAP
006070
01E0F0
07E1E0
0FE3E0
31E7E0
21CE20
01CC00
01D800
01D000
03A000
03A000
03C000
03C000
038000
078000
078000
070000
070000
070000
0F0000
0F0000
0E0000
0E0000
1E0000
180000
ENDCHAR

STARTCHAR s
ENCODING 115
SWIDTH 389 0
DWIDTH 19 0
BBX 19 25 0 -1
BITMAP
003F00
00FF80
038380
060180
0E0180
0C0180
1C0180
1C0000
1C0000
1F0000
1FF000
0FFE00
07FF00
00FF80
000F80
000380
000380
300380
300300
200300
200600
300C00
3C1800
7FF000
1F8000
ENDCHAR

STARTCHAR t
ENCODING 116
SWIDTH 333 0
DWIDTH 17 0
BBX 16 32 2 -1
BITMAP
0060
01E0
01E0
01E0
01E0
01C0
03C0
03C0
03C0
0380
0FFE
7FFC
0780
0780
0700
0700
0700
0F00
0F00
0E00
0E00
0E00
1E00
1E00
1C00
1C00
1C10
3C20
3CC0
3F80
3E00
3C00
ENDCHAR

STARTCHAR u
ENCODING 117
SWIDTH 556 0
DWIDTH 28 0
BBX 27 25 0 -1
BITMAP
00E00700
03E00F00
0FE00F00
19E00E00
31C00E00
01C00E00
01C01E00
03C01C00
03801C00
03803C00
03803C00
07807800
07007800
0700F800
0700B800
0F013800
0F037000
0E067000
0E0C7000
0E187080
1E307180
1E60F600
1FC0FC00
1F80F800
0E00E000
ENDCHAR

STARTCHAR v
ENCODING 118
SWIDTH 500 0
DWIDTH 25 0
BBX 26 25 0 -1
BITMAP
1FC41E00
1FFC3E00
1FF87F00
30187F00
20300700
20200700
00600700
00C00700
01C00700
01800600
03800600
03800E00
07000C00
07000C00
07001800
0F001800
0F001000
0F003000
0F006000
0F004000
0F808000
07C30000
07FE0000
03FC0000
00F00000
ENDCHAR

STARTCHAR w
ENCODING 119
SWIDTH 722 0
DWIDTH 36 0
BBX 38 25 -1 -1
BITMAP
1FCE0181C0
1FFC0703E0
1FF80F07F0
30180F05F0
20300E00F0
20200E0070
20600E0070
00C01E0070
01C01E0070
01801C0060
03801C0060
03803C00E0
07003C00C0
07003C00C0
07007800C0
0F00780180
0F00F80100
0F00B80300
0F01B80200
0F01380400
0F823C0800
078C3E1000
07F83FE000
03F01FC000
01C0070000
ENDCHAR

STARTCHAR x
ENCODING 120
SWIDTH 500 0
DWIDTH 25 0
BBX 27 25 -1 -1
BITMAP
01F00380
03F80F80
03F81F80
067C1F80
0C3C3100
081C6000
001C4000
001E8000
001F8000
000F0000
000E0000
000E0000
000E0000
000F0000
000F0000
00170000
00370000
00270000
00678000
00C78000
20878200
3383CC00
3F03F800
3E01F000
3C01E000
ENDCHAR

STARTCHAR y
ENCODING 121
SWIDTH 500 0
DWIDTH 25 0
BBX 28 38 -1 -14
BITMAP
01C003C0
03E003C0
0FE00380
19E00780
31E00780
01E00700
01E00F00
01E00F00
01E00E00
01E01E00
01C01E00
01C01E00
01C03C00
01C03C00
01C07C00
01C07800
01C0B800
03C1B800
03C17800
03C27000
03CC7000
03F87000
03F0E000
01E0E000
00C0E000
0001C000
0001C000
00018000
00038000
00030000
00070000
00060000
300C0000
700C0000
70180000
78300000
3FC00000
1F000000
ENDCHAR

STARTCHAR z
ENCODING 122
SWIDTH 444 0
DWIDTH 22 0
BBX 24 25 -1 -1
BITMAP
03F804
03FF8C
03FFF8
063FF8
060030
040060
0C00C0
000180
000300
000300
000600
000C00
001800
003000
006000
006000
00C000
018000
030018
060010
0C0030
0FFC70
1FFFF0
3FFFE0
200FE0
ENDCHAR

STARTCHAR braceleft
ENCODING 123
SWIDTH 333 0
DWIDTH 17 0
BBX 23 46 1 -10
BITMAP
00001C
000070
0001C0
000300
000700
000E00
001E00
001C00
003C00
003C00
003C00
003C00
003C00
007C00
007C00
007800
007800
007000
006000
00C000
018000
030000
180000
700000
1C0000
060000
030000
038000
038000
038000
078000
078000
0F8000
0F0000
1F0000
1E0000
1E0000
3C0000
3C0000
380000
380000
380000
180000
1C0000
0E0000
038000
ENDCHAR

STARTCHAR bar
ENCODING 124
SWIDTH 606 0
DWIDTH 30 0
BBX 7 45 12 -9
BITMAP
38
38
38
38
38
38
38
38
38
38
38
38
38
38
38
38
38
38
38
38
38
38
38
38
38
38
38
38
38
38
38
38
38
38
38
38
38
38
38
38
38
38
38
38
38
ENDCHAR

STARTCHAR braceright
ENCODING 125
SWIDTH 333 0
DWIDTH 17 0
BBX 23 47 -6 -11
BITMAP
000300
0001C0
000060
000070
000038
000038
000038
000038
000078
000078
0000F0
0000F0
0001F0
0001E0
0003E0
0003C0
0003C0
000380
000380
000180
0001C0
0000E0
000038
00001C
0000E0
000180
000700
000E00
001C00
001C00
003C00
003C00
007C00
007C00
007C00
007800
007800
007800
007800
007000
00E000
00E000
01C000
038000
060000
180000
400000
ENDCHAR

STARTCHAR asciitilde
ENCODING 126
SWIDTH 606 0
DWIDTH 30 0
BBX 29 9 1 13
BITMAP
07C00020
1FF00020
3FFE0060
3FFF8060
387FE0E0
700FFFC0
6003FFC0
6000FF80
40001E00
ENDCHAR

STARTCHAR space
ENCODING 160
SWIDTH 250 0
DWIDTH 16 0
BBX 0 0 0 0
BITMAP
ENDCHAR

STARTCHAR Aogonek
ENCODING 161
SWIDTH 722 0
DWIDTH 36 0
BBX 38 45 -3 -10
BITMAP
000000E000
000001E000
000001E000
000003E000
000003E000
000006F000
00000EF000
00000CF000
00001CF000
0000187000
0000307800
0000707800
0000607800
0000E07800
0000C03800
0001803800
0003803C00
0003003C00
0007003C00
0007FFFC00
000FFFFC00
001C001E00
0018001E00
0038001E00
0030001E00
0070001E00
00E0000F00
00E0000F00
01C0000F00
0180000F00
0380000F00
0700000F00
0700000F80
3FF0001FF0
3FF800FFF0
0000000600
0000000C00
0000001800
0000003000
0000007000
0000007000
0000007000
00000078C0
0000003F80
0000001E00
ENDCHAR

STARTCHAR breve
ENCODING 162
SWIDTH 333 0
DWIDTH 17 0
BBX 18 8 4 28
BITMAP
200180
200100
300300
300600
3C1E00
1FFC00
0FF800
03E000
ENDCHAR

STARTCHAR Lslash
ENCODING 163
SWIDTH 556 0
DWIDTH 28 0
BBX 29 35 -1 0
BITMAP
03FFE000
03FFE000
003E0000
003C0000
003C0000
003C0000
003C0000
003C0000
00780000
00780000
00780000
00780800
00783800
0078F000
0073E000
00FF8000
00FC0000
01F00000
07F00000
3FF00000
38E00000
20E00000
01E00000
01E00000
01E00000
01E00000
01C00000
03C00060
03C00060
03C00060
03C00040
03C000C0
07C001C0
1FFFFFC0
1FFFFFC0
ENDCHAR

STARTCHAR currency
ENCODING 164
SWIDTH 606 0
DWIDTH 30 0
BBX 28 25 1 5
BITMAP
303FC080
78FFF1C0
3FFFFFC0
1FF0FF80
0F801F00
1F000F80
1E000780
3C0003C0
3C0003C0
380001C0
780001E0
780001E0
780001E0
780001E0
780001E0
380001C0
3C0003C0
3C0003C0
1E000780
1F000F80
0F801F00
1FF0FF80
3FFFFFC0
38FFF1C0
103FC080
ENDCHAR

STARTCHAR Lcaron
ENCODING 165
SWIDTH 556 0
DWIDTH 28 0
BBX 30 36 0 0
BITMAP
00000070
07FFC1F0
07FFC1E0
007C01C0
007803C0
00780380
00780380
00780700
00700600
00700C00
00F00C00
00F01000
00F00000
00F00000
00F00000
00E00000
01E00000
01E00000
01E00000
01E00000
01E00000
01C00000
01C00000
03C00000
03C00000
03C00000
03C00000
03C00000
038000C0
078000C0
078000C0
078000C0
07800180
0F800380
3FFFFF80
3FFFFF80
ENDCHAR

STARTCHAR Sacute
ENCODING 166
SWIDTH 556 0
DWIDTH 28 0
BBX 27 45 1 -1
BITMAP
00000700
00000F00
00001F00
00003C00
00007800
0000E000
0001C000
00030000
00000000
00000000
0003FE00
000FFF80
003C0F80
00700380
00E00100
01C00100
03800100
03800300
03800000
07800000
07800000
07800000
07C00000
07C00000
03F00000
03FF0000
01FFF000
007FFC00
001FFE00
0001FE00
00003F00
00001F00
00000F00
00000F00
00000F00
00000F00
18000E00
10000E00
10001C00
10001C00
10003800
3C00F000
3F83C000
1FFF8000
07FC0000
ENDCHAR

STARTCHAR section
ENCODING 167
SWIDTH 500 0
DWIDTH 25 0
BBX 25 46 0 -11
BITMAP
0007F800
000FFE00
00383F00
00600E00
00C00600
00C00600
01800600
01800400
03800000
03800000
03C00000
03E00000
01F00000
01F80000
00FE0000
01BF8000
031FE000
0607F000
0C01F800
0C007C00
1C003E00
1C001E00
1C000E00
1E000E00
1F000E00
0F800C00
07E00C00
03F81800
01FC3000
00FF6000
001FC000
000FE000
0003F000
0001F000
0000F000
00007000
00007000
10007000
10006000
30006000
3000C000
38018000
3C038000
7F0E0000
1FFC0000
07F00000
ENDCHAR

STARTCHAR dieresis
ENCODING 168
SWIDTH 333 0
DWIDTH 17 0
BBX 16 5 5 28
BITMAP
1C1C
3C3C
3C3C
3C3C
3818
ENDCHAR

STARTCHAR Scaron
ENCODING 169
SWIDTH 556 0
DWIDTH 28 0
BBX 28 45 1 -1
BITMAP
000C00C0
000C0180
00060700
00030E00
00039C00
0001F800
0001F000
0000E000
00000000
00000000
0003FE00
000FFF80
003C0F80
00700380
00E00100
01C00100
03800100
03800300
03800000
07800000
07800000
07800000
07C00000
07C00000
03F00000
03FF0000
01FFF000
007FFC00
001FFE00
0001FE00
00003F00
00001F00
00000F00
00000F00
00000F00
00000F00
18000E00
10000E00
10001C00
10001C00
10003800
3C00F000
3F83C000
1FFF8000
07FC0000
ENDCHAR

STARTCHAR Scommaaccent
ENCODING 170
SWIDTH 556 0
DWIDTH 28 0
BBX 27 46 1 -12
BITMAP
0003FE00
000FFF80
003C0F80
00700380
00E00100
01C00100
03800100
03800300
03800000
07800000
07800000
07800000
07C00000
07C00000
03F00000
03FF0000
01FFF000
007FFC00
001FFE00
0001FE00
00003F00
00001F00
00000F00
00000F00
00000F00
00000F00
18000E00
10000E00
10001C00
10001C00
10003800
3C00F000
3F83C000
1FFF8000
07FC0000
00000000
00000000
00000000
00380000
00380000
00700000
00600000
00600000
00C00000
00800000
01000000
ENDCHAR

STARTCHAR Tcaron
ENCODING 171
SWIDTH 611 0
DWIDTH 31 0
BBX 32 46 2 0
BITMAP
00180060
000C00C0
00060380
00070700
00038E00
0003BC00
0001F800
0000F000
0000E000
00000000
00000000
3FFFFFFE
3FFFFFFC
3803C01C
3003C00C
3003C00C
3003C00C
2003C00C
2003C008
00078000
00078000
00078000
00078000
00078000
00078000
00070000
000F0000
000F0000
000F0000
000F0000
000F0000
000E0000
001E0000
001E0000
001E0000
001E0000
001E0000
001E0000
003C0000
003C0000
003C0000
003C0000
003C0000
007C0000
07FFC000
07FFE000
ENDCHAR

STARTCHAR Zacute
ENCODING 172
SWIDTH 667 0
DWIDTH 33 0
BBX 34 45 0 0
BITMAP
000000E000
000001E000
000003C000
0000078000
00000E0000
00001C0000
0000300000
0000600000
0000000000
0000000000
03FFFFFF00
03FFFFFF00
0380003E00
0300007C00
0300007800
030000F800
020001F000
020003E000
000003C000
0000078000
00000F8000
00001F0000
00003E0000
00003C0000
0000780000
0000F80000
0001F00000
0001E00000
0003C00000
0007C00000
000F800000
001F000000
001E000000
003C000000
007C000000
00F8000000
01F0000000
01E0000600
03C0000600
07C0000C00
0F80000C00
1F00000C00
1E00003C00
3FFFFFFC00
7FFFFFFC00
ENDCHAR

STARTCHAR hyphen
ENCODING 173
SWIDTH 333 0
DWIDTH 17 0
BBX 17 3 0 11
BITMAP
3FFE00
3FFE00
7FFE00
ENDCHAR

STARTCHAR Zcaron
ENCODING 174
SWIDTH 667 0
DWIDTH 33 0
BBX 34 46 0 0
BITMAP
0003001800
0003003000
0001806000
0000C1C000
0000E38000
0000770000
00007E0000
00003C0000
0000180000
0000000000
0000000000
03FFFFFF00
03FFFFFF00
0380003E00
0300007C00
0300007800
030000F800
020001F000
020003E000
000003C000
0000078000
00000F8000
00001F0000
00003E0000
00003C0000
0000780000
0000F80000
0001F00000
0001E00000
0003C00000
0007C00000
000F800000
001F000000
001E000000
003C000000
007C000000
00F8000000
01F0000000
01E0000600
03C0000600
07C0000C00
0F80000C00
1F00000C00
1E00003C00
3FFFFFFC00
7FFFFFFC00
ENDCHAR

STARTCHAR Zdotaccent
ENCODING 175
SWIDTH 667 0
DWIDTH 33 0
BBX 34 43 0 0
BITMAP
00000E0000
00001E0000
00001E0000
00001E0000
00001C0000
0000000000
0000000000
0000000000
01FFFFFF80
01FFFFFF00
01C0003E00
0180003E00
0300007C00
030000F800
030001F000
030001E000
000003E000
000007C000
00000F8000
00000F0000
00001E0000
00003E0000
00007C0000
0000F80000
0000F00000
0001E00000
0003E00000
0007C00000
0007800000
000F000000
001E000000
003E000000
007C000000
0078000000
00F0000000
01F0000600
03E0000600
07C0000600
0F80000600
0F80000C00
1F00003C00
3FFFFFFC00
3FFFFFFC00
ENDCHAR

STARTCHAR degree
ENCODING 176
SWIDTH 402 0
DWIDTH 20 0
BBX 18 16 3 19
BITMAP
01F000
07FC00
1FFE00
1E1F00
380700
380300
700380
700380
700380
700380
380300
380700
1E1E00
1FFE00
07FC00
03F000
ENDCHAR

STARTCHAR aogonek
ENCODING 177
SWIDTH 444 0
DWIDTH 22 0
BBX 23 34 0 -10
BITMAP
000FE8
007FF8
00E1F8
018070
038070
070070
0700F0
0E00E0
0E00E0
0E00E0
1E01E0
1C01E0
1C03C0
3C03C0
3C07C0
3805C0
380B80
781380
783380
786380
78C788
798790
7F07E0
7C07C0
380700
000400
000800
003800
003000
007000
007000
0078C0
003F80
001F00
ENDCHAR

STARTCHAR ogonek
ENCODING 178
SWIDTH 333 0
DWIDTH 17 0
BBX 12 10 2 -10
BITMAP
0200
0C00
1800
3000
3000
7000
7000
78C0
3F80
1E00
ENDCHAR

STARTCHAR lslash
ENCODING 179
SWIDTH 278 0
DWIDTH 14 0
BBX 16 37 0 -1
BITMAP
0010
01F0
0FF0
00F0
00F0
00E0
00E0
01E0
01E0
01E0
01C0
01C0
01C4
03DC
03FC
03F0
03C0
0F80
3F80
7780
4700
0700
0700
0F00
0E00
0E00
0E00
0E00
1E00
1E00
1C00
1C00
3C20
3CC0
3F80
3E00
3800
ENDCHAR

STARTCHAR acute
ENCODING 180
SWIDTH 333 0
DWIDTH 17 0
BBX 14 8 7 28
BITMAP
0030
00F0
01F0
03C0
0780
0E00
1C00
3000
ENDCHAR

STARTCHAR lcaron
ENCODING 181
SWIDTH 394 0
DWIDTH 20 0
BBX 22 37 1 -1
BITMAP
002070
03E1E0
1FE1E0
01E1C0
01E380
01C300
01C600
01CC00
03C000
03C000
038000
038000
038000
078000
078000
070000
070000
070000
0F0000
0F0000
0E0000
0E0000
0E0000
1E0000
1C0000
1C0000
1C0000
1C0000
3C0000
3C0000
380000
382000
384000
798000
7F0000
7C0000
700000
ENDCHAR

STARTCHAR sacute
ENCODING 182
SWIDTH 389 0
DWIDTH 19 0
BBX 22 37 0 -1
BITMAP
000070
0000F0
0001E0
0003C0
000700
000E00
001800
003000
000000
000000
000000
000000
003F00
00FF80
038380
060180
0E0180
0C0180
1C0180
1C0000
1C0000
1F0000
1FF000
0FFE00
07FF00
00FF80
000F80
000380
000380
300380
300300
200300
200600
300C00
3C1800
7FF000
1F8000
ENDCHAR

STARTCHAR caron
ENCODING 183
SWIDTH 333 0
DWIDTH 17 0
BBX 18 8 5 28
BITMAP
200300
300600
180C00
1C3800
0E7000
0FE000
07C000
038000
ENDCHAR

STARTCHAR commaaccent
ENCODING 184
SWIDTH 333 0
DWIDTH 17 0
BBX 12 12 0 -15
BITMAP
00C0
03C0
0380
0780
0700
0700
0E00
0C00
1C00
1800
3000
2000
ENDCHAR

STARTCHAR scaron
ENCODING 185
SWIDTH 389 0
DWIDTH 19 0
BBX 24 37 0 -1
BITMAP
00C00C
00E038
006070
0030E0
003BC0
001F80
001F00
000E00
000000
000000
000000
000000
003F00
00FF80
038380
060180
0E0180
0C0180
1C0180
1C0000
1C0000
1F0000
1FF000
0FFE00
07FF00
00FF80
000F80
000380
000380
300380
300300
200300
200600
300C00
3C1800
7FF000
1F8000
ENDCHAR

STARTCHAR scommaaccent
ENCODING 186
SWIDTH 389 0
DWIDTH 19 0
BBX 19 36 0 -12
BITMAP
003F00
00FF80
038380
060180
0E0180
0C0180
1C0180
1C0000
1C0000
1F0000
1FF000
0FFE00
07FF00
00FF80
000F80
000380
000380
300380
300300
200300
200600
300C00
3C1800
7FF000
1F8000
000000
000000
004000
01C000
01C000
038000
030000
030000
060000
0C0000
080000
ENDCHAR

STARTCHAR tcaron
ENCODING 187
SWIDTH 431 0
DWIDTH 22 0
BBX 22 37 2 -1
BITMAP
000018
0000F0
0000F0
0000E0
0001C0
006180
01E300
01E600
01E400
01E000
01C000
03C000
03C000
03C000
038000
0FFE00
7FFC00
078000
078000
070000
070000
070000
0F0000
0F0000
0E0000
0E0000
0E0000
1E0000
1E0000
1C0000
1C0000
1C1000
3C2000
3CC000
3F8000
3E0000
3C0000
ENDCHAR

STARTCHAR zacute
ENCODING 188
SWIDTH 444 0
DWIDTH 22 0
BBX 24 37 -1 -1
BITMAP
00001C
00003C
00007C
0000F0
0001C0
000380
000600
000C00
000000
000000
000000
000000
03F804
03FF8C
03FFF8
063FD8
060030
040060
0000C0
000180
000300
000300
000600
000C00
001800
003000
003000
006000
00C000
018000
030018
060010
060030
0DF870
1FFFF0
3FFFE0
300FE0
ENDCHAR

STARTCHAR hungarumlaut
ENCODING 189
SWIDTH 333 0
DWIDTH 17 0
BBX 18 9 5 27
BITMAP
018300
03C780
038F00
070E00
0E1C00
0C3800
183000
306000
304000
ENDCHAR

STARTCHAR zcaron
ENCODING 190
SWIDTH 444 0
DWIDTH 22 0
BBX 27 38 -1 -1
BITMAP
00200180
00300300
00180600
001C1C00
000E3800
00077000
0007E000
0003C000
00038000
00000000
00000000
00000000
00000000
03F80400
03FF8C00
03FFF800
063FD800
06003000
04006000
0000C000
00018000
00030000
00030000
00060000
000C0000
00180000
00300000
00300000
00600000
00C00000
01800000
03001800
06001000
06003000
0DF87000
1FFFF000
3FFFE000
300FE000
ENDCHAR

STARTCHAR zdotaccent
ENCODING 191
SWIDTH 444 0
DWIDTH 22 0
BBX 23 34 -1 -1
BITMAP
0001C0
0003C0
0003C0
0003C0
000380
000000
000000
000000
000000
03F000
07FF18
07FFF8
067FB0
0C0060
0800C0
0000C0
000180
000300
000600
000C00
001C00
001800
003000
006000
00C000
018000
018000
030010
060030
0C0030
19F860
3FFFE0
3FFFE0
601FE0
ENDCHAR

STARTCHAR Racute
ENCODING 192
SWIDTH 667 0
DWIDTH 33 0
BBX 35 45 -1 0
BITMAP
0000007000
000000F000
000001E000
000003C000
0000070000
00000E0000
0000180000
0000300000
0000000000
0000000000
03FFFF8000
01FFFFF000
001E01F800
001E00F800
001E007C00
001E003C00
003E003C00
003C003C00
003C003C00
003C003C00
003C007800
003C007800
003800F000
007801E000
007803C000
00780F0000
0079FC0000
0079F00000
0070F80000
00F0780000
00F07C0000
00F03E0000
00F01E0000
00F00F0000
00E00F8000
01E0078000
01E007C000
01E003E000
01E001E000
01E001F000
03E000F800
03C0007800
03E0007C00
3FFE003F80
3FFE003F80
ENDCHAR

STARTCHAR Aacute
ENCODING 193
SWIDTH 722 0
DWIDTH 36 0
BBX 38 45 -3 0
BITMAP
0000000700
0000000F00
0000001F00
0000003C00
0000007800
000000E000
000001C000
0000030000
0000000000
0000000000
000000E000
000000E000
000001E000
000003E000
000003F000
000007F000
000006F000
00000CF000
00001C7000
0000187800
0000387800
0000307800
0000607800
0000E03800
0000C03800
0001C03C00
0001803C00
0003003C00
0007003C00
0007FFFC00
000FFFFE00
000C001E00
001C001E00
0038001E00
0030000E00
0070000F00
0060000F00
00E0000F00
01C0000F00
01C0000F00
0380000F00
0380000780
0780000780
3FF0007FF0
3FF800FFF8
ENDCHAR

STARTCHAR Acircumflex
ENCODING 194
SWIDTH 722 0
DWIDTH 36 0
BBX 38 45 -3 0
BITMAP
0000007000
000000F800
000001FC00
000003DC00
0000070E00
00000E0600
00001C0300
0000300100
0000000000
0000000000
000000E000
000000E000
000001E000
000003E000
000003F000
000007F000
000006F000
00000CF000
00001C7000
0000187800
0000387800
0000307800
0000607800
0000E03800
0000C03800
0001C03C00
0001803C00
0003003C00
0007003C00
0007FFFC00
000FFFFE00
000C001E00
001C001E00
0038001E00
0030000E00
0070000F00
0060000F00
00E0000F00
01C0000F00
01C0000F00
0380000F00
0380000780
0780000780
3FF0007FF0
3FF800FFF8
ENDCHAR

STARTCHAR Abreve
ENCODING 195
SWIDTH 722 0
DWIDTH 36 0
BBX 38 45 -3 0
BITMAP
00001000C0
0000180080
0000180180
00001C0380
00000E0700
00000FFE00
000007FC00
000001F000
0000000000
0000000000
000000E000
000000E000
000001E000
000003E000
000003F000
000007F000
000006F000
00000CF000
00001C7000
0000187800
0000387800
0000307800
0000607800
0000E03800
0000C03800
0001C03C00
0001803C00
0003003C00
0007003C00
0007FFFC00
000FFFFE00
000C001E00
001C001E00
0038001E00
0030000E00
0070000F00
0060000F00
00E0000F00
01C0000F00
01C0000F00
0380000F00
0380000780
0780000780
3FF0007FF0
3FF800FFF8
ENDCHAR

STARTCHAR Adieresis
ENCODING 196
SWIDTH 722 0
DWIDTH 36 0
BBX 38 42 -3 0
BITMAP
0000070700
00000F0F00
00000F0F00
00000F0F00
0000060600
0000000000
0000000000
000000E000
000001E000
000001E000
000003E000
000003E000
000007F000
00000EF000
00000CF000
00001C7000
0000187000
0000387000
0000707800
0000607800
0000E07800
0000C03800
0001C03800
0001803C00
0003003C00
0007003C00
0007FFFC00
000FFFFC00
000C001C00
001C001E00
0038001E00
0030001E00
0070001E00
0060000E00
00E0000E00
01C0000F00
01C0000F00
0380000F00
0380000F00
0780000F80
3FF0007FF0
3FF800FFF0
ENDCHAR

STARTCHAR Lacute
ENCODING 197
SWIDTH 556 0
DWIDTH 28 0
BBX 28 45 0 0
BITMAP
00000300
00000F00
00001F00
00003C00
00007800
0000E000
0001C000
00030000
00000000
00000000
07FFC000
07FFC000
007C0000
00780000
00780000
00780000
00780000
00700000
00700000
00F00000
00F00000
00F00000
00F00000
00F00000
00E00000
01E00000
01E00000
01E00000
01E00000
01E00000
01C00000
01C00000
03C00000
03C00000
03C00000
03C00000
03C00000
038000C0
078000C0
078000C0
078000C0
07800180
0F800380
3FFFFF80
3FFFFF80
ENDCHAR

STARTCHAR Cacute
ENCODING 198
SWIDTH 667 0
DWIDTH 33 0
BBX 34 46 1 -1
BITMAP
0000007000
000000F000
000001E000
000003C000
0000070000
00000E0000
0000180000
0000600000
0000000000
0000000000
00007FF000
0003FFFF00
000F80FF00
003C001F00
0070000700
00E0000300
01C0000200
03C0000200
0780000200
0700000000
0F00000000
0F00000000
1E00000000
1E00000000
1E00000000
3E00000000
3C00000000
3C00000000
3C00000000
3C00000000
3C00000000
3C00000000
3C00000000
3E00000000
3E00000000
3E00000000
1F00000000
1F00000000
1F80000000
0F80000000
07E0000C00
03F0003C00
01FC01F000
00FFFFE000
003FFF0000
0007F80000
ENDCHAR

STARTCHAR Ccedilla
ENCODING 199
SWIDTH 667 0
DWIDTH 33 0
BBX 33 45 2 -10
BITMAP
00007FF000
0003FFFE00
000F80FF00
003C001E00
0070000600
00E0000600
01C0000600
0380000600
0780000600
0700000000
0F00000000
0E00000000
1E00000000
1E00000000
1E00000000
3C00000000
3C00000000
3C00000000
3C00000000
3C00000000
3C00000000
3C00000000
3C00000000
3E00000000
3E00000000
3E00000000
1E00000000
1F00000000
1F80000000
0F80000400
07C0001C00
07F0007800
03FC03F000
00FFFFC000
003FFF0000
0003F00000
0002000000
0004000000
000FC00000
0001E00000
0000E00000
0000E00000
0001E00000
007FC00000
001F000000
ENDCHAR

STARTCHAR Ccaron
ENCODING 200
SWIDTH 667 0
DWIDTH 33 0
BBX 34 46 1 -1
BITMAP
0001800C00
0000C03800
0000607000
000070E000
00003BC000
00003F8000
00001F0000
00000E0000
0000000000
0000000000
00007FF000
0003FFFF00
000F80FF00
003C001F00
0070000700
00E0000300
01C0000200
03C0000200
0780000200
0700000000
0F00000000
0F00000000
1E00000000
1E00000000
1E00000000
3E00000000
3C00000000
3C00000000
3C00000000
3C00000000
3C00000000
3C00000000
3C00000000
3E00000000
3E00000000
3E00000000
1F00000000
1F00000000
1F80000000
0F80000000
07E0000C00
03F0003C00
01FC01F000
00FFFFE000
003FFF0000
0007F80000
ENDCHAR

STARTCHAR Eacute
ENCODING 201
SWIDTH 611 0
DWIDTH 31 0
BBX 30 45 0 0
BITMAP
000001C0
000003C0
00000780
00001E00
00003C00
00007000
0000E000
00018000
00000000
00000000
07FFFFF8
01FFFFF0
003C0030
003C0030
003C0030
007C0030
00780030
00780030
00780000
00780000
00780000
00780000
00F00000
00F00000
00F00000
00F00000
00FFFF00
00FFFF00
00E00000
01E00000
01E00000
01E00000
01E00000
01C00000
03C00000
03C00000
03C00000
03C00020
03C00060
07C00060
07800060
07800060
078000C0
1FFFFFC0
3FFFFFC0
ENDCHAR

STARTCHAR Eogonek
ENCODING 202
SWIDTH 611 0
DWIDTH 31 0
BBX 30 45 0 -10
BITMAP
07FFFFF0
03FFFFF0
007C0070
007C0030
00780030
00780030
00780020
00780020
00780000
00780000
00F00000
00F00000
00F00000
00F00000
00F00000
00F00000
01FFFF00
01FFFF00
01E00000
01E00000
01E00000
01C00000
03C00000
03C00000
03C00000
03C00000
03C00000
03800060
07800060
07800040
07800040
078000C0
0F8001C0
1FFFFFC0
3FFFFFC0
00001000
00003000
00006000
0000C000
0001C000
0001C000
0001C000
0001F300
0000FE00
00007800
ENDCHAR

STARTCHAR Edieresis
ENCODING 203
SWIDTH 611 0
DWIDTH 31 0
BBX 29 43 1 0
BITMAP
00038380
00078780
00078780
00078780
00070700
00000000
00000000
00000000
07FFFFE0
03FFFFE0
007800E0
00780060
00780060
00780060
00780060
00F00060
00F00000
00F00000
00F00000
00F00000
00F00000
00E00000
01E00000
01E00000
01FFFE00
01FFFE00
01E00000
01C00000
03C00000
03C00000
03C00000
03C00000
03C00000
07800000
07800000
078000C0
078000C0
078000C0
07800080
0F800180
0F000380
1FFFFF80
7FFFFF80
ENDCHAR

STARTCHAR Ecaron
ENCODING 204
SWIDTH 611 0
DWIDTH 31 0
BBX 30 46 0 0
BITMAP
00060018
00030070
000380E0
000181C0
0000C700
0000EE00
00007C00
00007800
00003000
00000000
00000000
07FFFFF8
01FFFFF0
003C0030
003C0030
003C0030
007C0030
00780030
00780030
00780000
00780000
00780000
00780000
00F00000
00F00000
00F00000
00F00000
00FFFF00
00FFFF00
00E00000
01E00000
01E00000
01E00000
01E00000
01C00000
03C00000
03C00000
03C00000
03C00020
03C00060
07C00060
07800060
07800060
078000C0
1FFFFFC0
3FFFFFC0
ENDCHAR

STARTCHAR Iacute
ENCODING 205
SWIDTH 333 0
DWIDTH 17 0
BBX 22 45 -1 0
BITMAP
000038
000078
0000F0
0001E0
000380
000700
000C00
001800
000000
000000
03FFE0
03FFE0
003E00
003E00
003C00
003C00
003C00
003C00
003800
003800
007800
007800
007800
007800
007800
007000
00F000
00F000
00F000
00F000
00F000
00E000
01E000
01E000
01E000
01E000
01E000
03C000
03C000
03C000
03C000
03C000
07C000
0FE000
7FFC00
ENDCHAR

STARTCHAR Icircumflex
ENCODING 206
SWIDTH 333 0
DWIDTH 17 0
BBX 23 45 -1 0
BITMAP
000380
0007C0
000FC0
001CE0
003860
007070
00C038
018018
000000
000000
03FFE0
03FFE0
003E00
003E00
003C00
003C00
003C00
003C00
003800
003800
007800
007800
007800
007800
007800
007000
00F000
00F000
00F000
00F000
00F000
00E000
01E000
01E000
01E000
01E000
01E000
03C000
03C000
03C000
03C000
03C000
07C000
0FE000
7FFC00
ENDCHAR

STARTCHAR Dcaron
ENCODING 207
SWIDTH 778 0
DWIDTH 39 0
BBX 37 46 0 0
BITMAP
0000C00300
0000600600
0000301C00
0000383800
00001C7000
00001DE000
00000FC000
0000078000
0000070000
0000000000
0000000000
0FFFFFE000
03FFFFFC00
00F801FE00
00F8003F00
00F0000F80
00F00007C0
00F00007E0
00F00003E0
00F00003E0
00F00001E0
00E00001F0
01E00001F0
01E00001F0
01E00001F0
01E00001F0
01E00001F0
01C00001F0
03C00001E0
03C00001E0
03C00001E0
03C00003E0
03C00003C0
03800003C0
0380000780
0780000780
0780000F00
0780000E00
0780001E00
0780003C00
0F00007800
0F0000F000
0F0001C000
0FC00F8000
3FFFFE0000
7FFFE00000
ENDCHAR

STARTCHAR Dcroat
ENCODING 208
SWIDTH 778 0
DWIDTH 39 0
BBX 38 35 0 0
BITMAP
07FFFFE000
03FFFFFC00
007800FF00
0078001F80
0078000FC0
00780007E0
00780003E0
00F00001E0
00F00001F0
00F00001F0
00F00000F0
00F00000F0
00E00000F0
00E00000F0
01E00000F0
01E00000F0
1FFFF000F0
1FFFF000F0
01E00001F0
01C00001E0
03C00001E0
03C00001E0
03C00003C0
03C00003C0
03C0000780
0380000700
0780000F00
0780001E00
0780001C00
0780003800
0780007000
0F8001E000
0FE00F8000
1FFFFE0000
3FFFF00000
ENDCHAR

STARTCHAR Nacute
ENCODING 209
SWIDTH 778 0
DWIDTH 39 0
BBX 43 46 -1 -1
BITMAP
000000030000
0000000F0000
0000001F0000
0000003C0000
000000780000
000000E00000
000001C00000
000003000000
000000000000
000000000000
07F80001FFC0
07FC0001FFC0
007E00001C00
003E00001C00
001F00001800
001F00001800
003F80003800
003780003800
0033C0003800
0033E0003000
0031E0003000
0031F0003000
0060F0003000
0060F8007000
006078007000
00603C006000
00603E006000
00E01E006000
00C01F006000
00C00F00E000
00C00780C000
00C007C0C000
00C003C0C000
01C001E0C000
018001E0C000
018000F1C000
018000F98000
018000798000
0380007D8000
0380003D8000
0380001F8000
0300001F8000
0700000F0000
0FC0000F0000
3FF800070000
000000070000
ENDCHAR

STARTCHAR Ncaron
ENCODING 210
SWIDTH 778 0
DWIDTH 39 0
BBX 43 46 -1 -1
BITMAP
00000C00C000
00000E018000
000006030000
0000030E0000
0000039C0000
000001F80000
000001F00000
000000E00000
000000000000
000000000000
07F80001FFC0
07FC0001FFC0
007E00001C00
003E00001C00
001F00001800
001F00001800
003F80003800
003780003800
0033C0003800
0033E0003000
0031E0003000
0031F0003000
0060F0003000
0060F8007000
006078007000
00603C006000
00603E006000
00E01E006000
00C01F006000
00C00F00E000
00C00780C000
00C007C0C000
00C003C0C000
01C001E0C000
018001E0C000
018000F1C000
018000F98000
018000798000
0380007D8000
0380003D8000
0380001F8000
0300001F8000
0700000F0000
0FC0000F0000
3FF800070000
000000070000
ENDCHAR

STARTCHAR Oacute
ENCODING 211
SWIDTH 778 0
DWIDTH 39 0
BBX 38 46 1 -1
BITMAP
0000001C00
0000003C00
0000007C00
000000F000
000001E000
0000038000
0000060000
00000C0000
0000000000
0000000000
00003FE000
0003FFFC00
000F807F00
001C001F80
00780007C0
00F00003C0
01E00003E0
01C00001E0
03800001F0
07800001F0
07000000F0
0F000000F0
0F000000F0
1E000000F0
1E000000F0
1E000000F0
1E000000F0
3E000000F0
3C000000F0
3C000001F0
3C000001E0
3C000001E0
3C000001E0
3C000003C0
3C000003C0
3C00000380
3E00000780
3E00000F00
1E00000E00
1F00001C00
0F80003C00
0FC0007000
07E001E000
03FC07C000
00FFFF0000
001FF00000
ENDCHAR

STARTCHAR Ocircumflex
ENCODING 212
SWIDTH 778 0
DWIDTH 39 0
BBX 38 46 1 -1
BITMAP
000001C000
000003C000
000007E000
00000F7000
00001C7000
0000383800
0000601800
0000C00C00
0000000000
0000000000
00003FE000
0003FFFC00
000F807F00
001C001F80
00780007C0
00F00003C0
01E00003E0
01C00001E0
03800001F0
07800001F0
07000000F0
0F000000F0
0F000000F0
1E000000F0
1E000000F0
1E000000F0
1E000000F0
3E000000F0
3C000000F0
3C000001F0
3C000001E0
3C000001E0
3C000001E0
3C000003C0
3C000003C0
3C00000380
3E00000780
3E00000F00
1E00000E00
1F00001C00
0F80003C00
0FC0007000
07E001E000
03FC07C000
00FFFF0000
001FF00000
ENDCHAR

STARTCHAR Ohungarumlaut
ENCODING 213
SWIDTH 778 0
DWIDTH 39 0
BBX 38 46 1 -1
BITMAP
0000018300
000003C700
0000078F00
0000070E00
00000E1C00
00001C3800
0000383000
0000306000
000060C000
0000000000
00003FC000
0001FFFC00
000F807E00
001C001F80
00780007C0
00F00003C0
01E00003E0
01C00001E0
03800001F0
07800001F0
07000000F0
0F000000F0
0F000000F0
1E000000F0
1E000000F0
1E000000F0
1E000000F0
3E000000F0
3C000000F0
3C000001F0
3C000001E0
3C000001E0
3C000001E0
3C000003C0
3C000003C0
3C00000380
3E00000780
3E00000F00
1E00000E00
1F00001C00
0F80003C00
0FC0007000
07E001E000
03FC07C000
00FFFF0000
001FF00000
ENDCHAR

STARTCHAR Odieresis
ENCODING 214
SWIDTH 778 0
DWIDTH 39 0
BBX 37 43 2 -1
BITMAP
0000383800
0000787800
0000787800
0000787800
0000303000
0000000000
0000000000
00007FC000
0003FFF800
000F00FE00
003C001F00
0078000F80
00E0000780
01E00007C0
03C00003C0
03800003E0
07800003E0
07000001E0
0F000001E0
0F000001E0
1E000001E0
1E000001E0
1E000001E0
3E000001E0
3E000001E0
3C000003E0
3C000003E0
3C000003C0
3C000003C0
3C000003C0
3C00000780
3C00000780
3C00000700
3E00000F00
3E00001E00
1E00001C00
1F00003800
0F80007800
0FC000E000
07E001C000
03F80F8000
00FFFE0000
003FF00000
ENDCHAR

STARTCHAR multiply
ENCODING 215
SWIDTH 606 0
DWIDTH 30 0
BBX 24 21 3 7
BITMAP
000008
18001C
3C003E
1E007C
0F00F8
0781F0
03C3E0
01E7C0
00FF80
007F00
003E00
007E00
00FF00
01FF80
03E7C0
07C3E0
0F81F0
1F00F8
3E007C
3C001C
180008
ENDCHAR

STARTCHAR Rcaron
ENCODING 216
SWIDTH 667 0
DWIDTH 33 0
BBX 35 45 -1 0
BITMAP
0000C00C00
0000E03800
0000607000
000030E000
00003BC000
00001F8000
00001F0000
00000E0000
0000000000
0000000000
03FFFF8000
01FFFFF000
001E01F800
001E00F800
001E007C00
001E003C00
003E003C00
003C003C00
003C003C00
003C003C00
003C007800
003C007800
003800F000
007801E000
007803C000
00780F0000
0079FC0000
0079F00000
0070F80000
00F0780000
00F07C0000
00F03E0000
00F01E0000
00F00F0000
00E00F8000
01E0078000
01E007C000
01E003E000
01E001E000
01E001F000
03E000F800
03C0007800
03E0007C00
3FFE003F80
3FFE003F80
ENDCHAR

STARTCHAR Uring
ENCODING 217
SWIDTH 778 0
DWIDTH 39 0
BBX 39 47 3 -1
BITMAP
00001E0000
00003F8000
0000618000
0000C0C000
0000C0C000
0000C0C000
0000C0C000
0000618000
00003F0000
00001E0000
0000000000
3FE000FFF8
1FC0003FE0
03C0000F80
03C0000780
03C0000F80
07C0000F00
0780000F00
0780000F00
0780000F00
0780000F00
0780000E00
0700000E00
0F00001E00
0F00001E00
0F00001E00
0F00001E00
0F00001C00
0E00001C00
1E00003C00
1E00003C00
1E00003C00
1E00003C00
1E00003C00
1C00003800
3C00007800
3C00007800
3C00007800
3C0000F800
3C0001F800
3E00037000
3E00067000
1F001CF000
1FC0F8F000
0FFFE0FC00
03FF80FF00
007C000000
ENDCHAR

STARTCHAR Uacute
ENCODING 218
SWIDTH 778 0
DWIDTH 39 0
BBX 39 46 3 -1
BITMAP
0000007000
000000F000
000001E000
000003C000
0000070000
00000E0000
0000180000
0000300000
0000000000
0000000000
3FC000FFF8
1FC0003FE0
03C0000F80
03C0000F80
03C0000F00
0780000F00
0780000F00
0780000F00
0780000F00
0780000E00
0700000E00
0700001E00
0F00001E00
0F00001E00
0F00001E00
0F00001E00
0E00001C00
0E00001C00
1E00003C00
1E00003C00
1E00003C00
1E00003C00
1E00003800
1C00003800
3C00007800
3C00007800
3C00007800
3C0000F800
3C0001F000
3C00037000
3E000EF000
1F001CF000
1FC0F0F000
0FFFE0FC00
03FF80FF00
007C000000
ENDCHAR

STARTCHAR Uhungarumlaut
ENCODING 219
SWIDTH 778 0
DWIDTH 39 0
BBX 39 47 3 -1
BITMAP
0000060C00
00000E1C00
00001E3C00
00001C3800
0000387000
000070E000
000060C000
0000C18000
0001830000
0000000000
0000000000
3FC000FFF8
1FC0003FE0
03C0000F80
03C0000F80
03C0000F00
0780000F00
0780000F00
0780000F00
0780000F00
0780000E00
0700000E00
0700001E00
0F00001E00
0F00001E00
0F00001E00
0F00001E00
0E00001C00
0E00001C00
1E00003C00
1E00003C00
1E00003C00
1E00003C00
1E00003800
1C00003800
3C00007800
3C00007800
3C00007800
3C0000F800
3C0001F000
3C00037000
3E000EF000
1F001CF000
1FC0F0F000
0FFFE0FC00
03FF80FF00
007C000000
ENDCHAR

STARTCHAR Udieresis
ENCODING 220
SWIDTH 778 0
DWIDTH 39 0
BBX 38 43 3 -1
BITMAP
0001C1C000
0003C3C000
0003C3C000
0003C3C000
0001818000
0000000000
0000000000
3FE000FFF8
1FC0003FC0
03C0000F80
03C0000F00
03C0000F00
0780000F00
0780000F00
0780000E00
0780001E00
0780001E00
0780001E00
0700001E00
0F00001E00
0F00001C00
0F00001C00
0F00003C00
0E00003C00
0E00003C00
1E00003C00
1E00003C00
1E00003800
1E00003800
1E00007800
1C00007800
3C00007800
3C00007800
3C0000F000
3C0001F000
3C0001F000
3C0007F000
3E000EF000
1F0038F000
1FC0F0F000
0FFFE1F800
03FF81FF00
007C000000
ENDCHAR

STARTCHAR Yacute
ENCODING 221
SWIDTH 667 0
DWIDTH 33 0
BBX 35 45 2 0
BITMAP
0000003000
000000F000
000001F000
000003E000
0000078000
00000E0000
00001C0000
0000300000
0000000000
0000000000
0700000080
0FC0000380
3FE0000F80
3FE0001F80
01F0003C00
00F0007800
00F800E000
007800C000
007C01C000
003C038000
003C030000
001E060000
001E0E0000
001E0C0000
000F180000
000F180000
000F300000
0007300000
0007E00000
0007E00000
0007C00000
0003C00000
0003C00000
0003800000
0007800000
0007800000
0007800000
0007800000
0007800000
0007000000
000F000000
000F000000
000F000000
003FE00000
01FFF00000
ENDCHAR

STARTCHAR Tcommaaccent
ENCODING 222
SWIDTH 611 0
DWIDTH 31 0
BBX 32 46 2 -11
BITMAP
3FFFFFFE
3FFFFFFC
3803C01C
3003C00C
3003C00C
3003C00C
2003C00C
2003C008
00078000
00078000
00078000
00078000
00078000
00078000
00070000
000F0000
000F0000
000F0000
000F0000
000F0000
000E0000
001E0000
001E0000
001E0000
001E0000
001E0000
001C0000
003C0000
003C0000
003C0000
003C0000
003C0000
007C0000
07FFE000
07FFC000
00000000
00000000
00000000
00380000
00380000
00700000
00600000
00E00000
00C00000
01800000
01000000
ENDCHAR

STARTCHAR germandbls
ENCODING 223
SWIDTH 500 0
DWIDTH 25 0
BBX 35 50 -9 -14
BITMAP
0000003E00
000000FF00
0000038F80
0000060780
00001C0380
0000380380
0000780380
0000700380
0000700300
0000F00300
0000F00600
0000E00600
0000E00C00
0001E00800
0001E01000
0007E03000
001FC06000
0001C06000
0001C0E000
0003C0E000
0003C0F000
000380F000
0003807800
0003807800
0003803C00
0007803C00
0007801E00
0007001E00
0007000E00
0007000E00
0007000E00
000E080C00
000E080C00
000E181800
000E1C3000
000E1FE000
001C0F8000
001C000000
001C000000
0018000000
0018000000
0038000000
0030000000
0030000000
0060000000
00C0000000
31C0000000
3F80000000
3E00000000
3C00000000
ENDCHAR

STARTCHAR racute
ENCODING 224
SWIDTH 389 0
DWIDTH 19 0
BBX 23 37 0 -1
BITMAP
000018
000078
0000F8
0001E0
0003C0
000700
000E00
001800
000000
000000
000000
000000
006070
01E0F0
07E1E0
0FE3E0
31E7E0
21C620
01CC00
01D800
01D000
03A000
03A000
03C000
03C000
038000
078000
078000
070000
070000
070000
0F0000
0F0000
0E0000
0E0000
1E0000
180000
ENDCHAR

STARTCHAR aacute
ENCODING 225
SWIDTH 444 0
DWIDTH 22 0
BBX 24 37 0 -1
BITMAP
00001C
00003C
000078
0000F0
0001C0
000380
000600
000800
000000
000000
000000
000000
000FE8
007FF8
00E1F8
018070
038070
070070
0700F0
0E00E0
0E00E0
1E00E0
1C01E0
1C01E0
1C03C0
3C03C0
3807C0
3805C0
380B80
781380
783380
786380
78C788
798790
7F07E0
7C07C0
380700
ENDCHAR

STARTCHAR acircumflex
ENCODING 226
SWIDTH 444 0
DWIDTH 22 0
BBX 24 38 0 -1
BITMAP
0000C0
0001E0
0003E0
0007F0
000E30
001C38
00301C
00600C
00C006
000000
000000
000000
000000
000FE8
007FF8
00E1F8
018070
038070
070070
0700F0
0E00E0
0E00E0
1E00E0
1C01E0
1C01E0
1C03C0
3C03C0
3807C0
3805C0
380B80
781380
783380
786380
78C788
798790
7F07E0
7C07C0
380700
ENDCHAR

STARTCHAR abreve
ENCODING 227
SWIDTH 444 0
DWIDTH 22 0
BBX 26 37 0 -1
BITMAP
00400300
00400300
00600600
00700E00
00781C00
003FF800
001FF000
0007C000
00000000
00000000
00000000
00000000
000FE800
007FF800
00E1F800
01807000
03807000
07007000
0700F000
0E00E000
0E00E000
1E00E000
1C01E000
1C01E000
1C03C000
3C03C000
3807C000
3805C000
380B8000
78138000
78338000
78638000
78C78800
79879000
7F07E000
7C07C000
38070000
ENDCHAR

STARTCHAR adieresis
ENCODING 228
SWIDTH 444 0
DWIDTH 22 0
BBX 24 34 0 -1
BITMAP
001C1C
003C3C
003C3C
003C3C
001818
000000
000000
000000
000000
000FD8
007FF8
00E1F0
018070
0300F0
0700F0
0700E0
0E00E0
0E01E0
1E01E0
1C01C0
1C03C0
1C03C0
3C07C0
3807C0
380D80
381B80
781380
783380
786380
78C798
7B87B0
7F07E0
7C07C0
380700
ENDCHAR

STARTCHAR lacute
ENCODING 229
SWIDTH 278 0
DWIDTH 14 0
BBX 18 46 1 -1
BITMAP
000380
000780
000F80
001E00
003C00
007000
00E000
018000
000000
002000
03E000
1FE000
01E000
01E000
01C000
01C000
01C000
03C000
03C000
038000
038000
038000
078000
078000
070000
070000
070000
0F0000
0F0000
0E0000
0E0000
0E0000
1E0000
1C0000
1C0000
1C0000
1C0000
3C0000
3C0000
380000
382000
384000
798000
7F0000
7C0000
700000
ENDCHAR

STARTCHAR cacute
ENCODING 230
SWIDTH 407 0
DWIDTH 20 0
BBX 22 37 1 -1
BITMAP
000038
000078
0000F0
0001C0
000780
000E00
001C00
003000
000000
000000
000000
000000
000FC0
003FE0
00E1E0
038060
070060
060040
0E0040
1C0000
1C0000
1C0000
3C0000
380000
380000
380000
780000
780000
780000
780000
780000
7800C0
3C0300
3E0E00
1FFC00
1FF000
07C000
ENDCHAR

STARTCHAR ccedilla
ENCODING 231
SWIDTH 407 0
DWIDTH 20 0
BBX 21 34 1 -10
BITMAP
000FE0
003FF0
00E1E0
018060
070060
070060
0E0060
1E0000
1C0000
1C0000
3C0000
3C0000
380000
380000
780000
780000
780000
780000
780000
7C00C0
3C0180
3E0700
1FFC00
1FF000
07C000
018000
010000
03F000
007800
003800
003800
107800
1FF000
07C000
ENDCHAR

STARTCHAR ccaron
ENCODING 232
SWIDTH 407 0
DWIDTH 20 0
BBX 25 38 1 -1
BITMAP
00C00300
00600E00
00701C00
00303800
0038F000
001DE000
000FC000
000F0000
00060000
00000000
00000000
00000000
00000000
000FC000
003FE000
00E1E000
03806000
07006000
06004000
0E004000
1C000000
1C000000
1C000000
3C000000
38000000
38000000
38000000
78000000
78000000
78000000
78000000
78000000
7800C000
3C030000
3E0E0000
1FFC0000
1FF00000
07C00000
ENDCHAR

STARTCHAR eacute
ENCODING 233
SWIDTH 389 0
DWIDTH 19 0
BBX 22 37 0 -1
BITMAP
000038
000078
0000F0
0003C0
000780
000E00
001C00
003000
000000
000000
000000
000000
000F80
003FC0
00E3E0
0181E0
0301E0
0701E0
0E01C0
0E01C0
1E0380
1C0700
1C1C00
3C7000
3FC000
3C0000
380000
780000
780000
780000
780000
780080
780380
3C0600
3F1C00
1FF000
0FC000
ENDCHAR

STARTCHAR eogonek
ENCODING 234
SWIDTH 389 0
DWIDTH 19 0
BBX 21 34 -1 -10
BITMAP
0007C0
001FE0
0071F0
00C0F0
0180F0
0380F0
0700E0
0700E0
0F01C0
0E0380
0E0E00
1E3800
1FE000
1E0000
1C0000
3C0000
3C0000
3C0000
3C0000
3C0040
3C01C0
3E0300
1F8E00
0FF800
07E000
004000
008000
038000
030000
070000
070000
078C00
03F800
01F000
ENDCHAR

STARTCHAR edieresis
ENCODING 235
SWIDTH 389 0
DWIDTH 19 0
BBX 23 34 0 -1
BITMAP
003838
007878
007878
007878
003030
000000
000000
000000
000000
000F80
003FC0
00E3E0
01C1E0
0381E0
0701E0
0F01C0
0E01C0
1E0380
1C0700
1C0E00
3C7800
3FC000
3C0000
380000
780000
780000
780000
780000
780080
7C0180
3C0600
3F1C00
1FF800
0FE000
ENDCHAR

STARTCHAR ecaron
ENCODING 236
SWIDTH 389 0
DWIDTH 19 0
BBX 25 37 0 -1
BITMAP
00C00C00
00601800
00303000
0038E000
001DC000
001F8000
000F0000
00060000
00000000
00000000
00000000
00000000
000F8000
003FC000
00E3E000
0181E000
0301E000
0701E000
0E01C000
0E01C000
1E038000
1C070000
1C1C0000
3C700000
3FC00000
3C000000
38000000
78000000
78000000
78000000
78000000
78008000
78038000
3C060000
3F1C0000
1FF00000
0FC00000
ENDCHAR

STARTCHAR iacute
ENCODING 237
SWIDTH 278 0
DWIDTH 14 0
BBX 19 37 0 -1
BITMAP
0001C0
0007C0
000F80
001E00
003C00
007000
00E000
018000
000000
000000
000000
000000
00E000
03E000
07E000
19E000
31E000
01C000
01C000
03C000
03C000
038000
038000
038000
078000
070000
070000
070000
0F0000
0E0000
0E0000
0E0000
1E3000
1E6000
1F8000
1F0000
1C0000
ENDCHAR

STARTCHAR icircumflex
ENCODING 238
SWIDTH 278 0
DWIDTH 14 0
BBX 20 38 0 -1
BITMAP
001C00
003C00
007E00
00FE00
01E700
038300
070180
0E00C0
1800C0
000000
000000
000000
000000
00E000
03E000
07E000
19E000
31E000
01C000
01C000
03C000
03C000
038000
038000
038000
078000
070000
070000
070000
0F0000
0E0000
0E0000
0E0000
1E3000
1E6000
1F8000
1F0000
1C0000
ENDCHAR

STARTCHAR dcaron
ENCODING 239
SWIDTH 642 0
DWIDTH 32 0
BBX 34 37 0 0
BITMAP
0000000080
0000070F80
0000FF0F00
00003F0E00
00000F1C00
00000E1800
00000E3800
00001E3000
00001E4000
00001E0000
00001C0000
00001C0000
00001C0000
000FFC0000
007FFC0000
00C0F80000
0180380000
0300380000
0700380000
0600700000
0E00700000
0E00700000
1C00F00000
1C00F00000
1C00E00000
3C01E00000
3801E00000
3802E00000
3807E00000
7805C00000
7809C00000
7811C00000
7861C60000
78C3CC0000
7F83F80000
3F03E00000
3C03C00000
ENDCHAR

STARTCHAR dcroat
ENCODING 240
SWIDTH 500 0
DWIDTH 25 0
BBX 29 37 0 0
BITMAP
00000100
00000F00
0000FF00
00001F00
00000F00
00000E00
00000E00
000FFFE0
000FFFE0
00001E00
00001C00
00001C00
00001C00
000FFC00
007FF800
00C0F800
01803800
03003800
07003800
06007000
0E007000
0E007000
1C00F000
1C00F000
3C00E000
3C01E000
3801E000
3802E000
3807E000
780DC000
7809C000
7811C000
7861C600
79C3CC00
7F83F800
3F03E000
3C03C000
ENDCHAR

STARTCHAR nacute
ENCODING 241
SWIDTH 556 0
DWIDTH 28 0
BBX 27 37 0 -1
BITMAP
00000700
00000F00
00001E00
00003C00
00007000
0000E000
00018000
00020000
00000000
00000000
00000000
00000000
01C00F00
07C03F00
0FC0FF00
1BC1CF00
63C30F00
43C60E00
038C0E00
03980E00
03B01E00
03E01C00
07401C00
07C01C00
07803C00
07803800
07003800
0F003800
0F007800
0E007800
0E007000
1E007000
1E00F180
1E00F300
1C00FE00
1C00F800
3800E000
ENDCHAR

STARTCHAR ncaron
ENCODING 242
SWIDTH 556 0
DWIDTH 28 0
BBX 28 37 0 -1
BITMAP
000C00C0
000E0380
00060700
00070E00
0003BC00
0001F800
0001F000
0000E000
00000000
00000000
00000000
00000000
01C00F00
07C03F00
0FC0FF00
1BC1CF00
63C30F00
43C60E00
038C0E00
03980E00
03B01E00
03E01C00
07401C00
07C01C00
07803C00
07803800
07003800
0F003800
0F007800
0E007800
0E007000
1E007000
1E00F180
1E00F300
1C00FE00
1C00F800
3800E000
ENDCHAR

STARTCHAR oacute
ENCODING 243
SWIDTH 444 0
DWIDTH 22 0
BBX 23 37 0 -1
BITMAP
00001C
00003C
000078
0000F0
0001C0
000380
000600
001C00
000000
000000
000000
000000
001F80
007FE0
01C1E0
0380F0
070078
0E0078
0E0078
1C0078
1C0078
3C0078
3C0078
380078
380070
780070
7800F0
7800F0
7800E0
7800E0
7801C0
780180
3C0300
3C0700
1E0C00
1FF800
07E000
ENDCHAR

STARTCHAR ocircumflex
ENCODING 244
SWIDTH 444 0
DWIDTH 22 0
BBX 24 37 0 -1
BITMAP
0001C0
0003E0
0007E0
000E70
001C30
003038
006018
00C00C
000000
000000
000000
000000
001F80
007FE0
01C1E0
0380F0
070078
0E0078
0E0078
1C0078
1C0078
3C0078
3C0078
380078
380070
780070
7800F0
7800F0
7800E0
7800E0
7801C0
780180
3C0300
3C0700
1E0C00
1FF800
07E000
ENDCHAR

STARTCHAR ohungarumlaut
ENCODING 245
SWIDTH 444 0
DWIDTH 22 0
BBX 26 37 0 -1
BITMAP
00018300
00038700
00078F00
00070E00
000E1C00
001C3800
00387000
00306000
0060C000
00000000
00000000
00000000
000F8000
007FC000
01C1E000
0380F000
07007800
0E007800
0E007800
1C007800
1C007800
3C007800
3C007800
38007800
38007000
78007000
7800F000
7800F000
7800E000
7800E000
7801C000
78018000
3C030000
3C070000
1E0C0000
1FF80000
07E00000
ENDCHAR

STARTCHAR odieresis
ENCODING 246
SWIDTH 444 0
DWIDTH 22 0
BBX 24 34 0 -1
BITMAP
001C1C
003C3C
003C3C
003C3C
001818
000000
000000
000000
000000
000F80
007FE0
00C1F0
0380F0
070078
060078
0E0078
1E0078
1C0078
3C0078
3C0078
3C0078
380070
780070
780070
7800F0
7800E0
7800E0
7801C0
780180
3C0380
3C0300
1F0E00
0FF800
07E000
ENDCHAR

STARTCHAR divide
ENCODING 247
SWIDTH 606 0
DWIDTH 30 0
BBX 28 21 1 7
BITMAP
00060000
000F0000
001F8000
001F8000
000F0000
00060000
00000000
00000000
00000000
3FFFFFC0
3FFFFFC0
3FFFFFC0
00000000
00000000
00000000
00060000
000F0000
001F8000
001F8000
000F0000
00060000
ENDCHAR

STARTCHAR rcaron
ENCODING 248
SWIDTH 389 0
DWIDTH 19 0
BBX 26 37 0 -1
BITMAP
00600600
00300C00
00381800
00187000
001CE000
000FC000
00078000
00070000
00000000
00000000
00000000
00000000
00607000
01E0F000
07E1E000
0FE3E000
31E7E000
21C62000
01CC0000
01D80000
01D00000
03A00000
03A00000
03C00000
03C00000
03800000
07800000
07800000
07000000
07000000
07000000
0F000000
0F000000
0E000000
0E000000
1E000000
18000000
ENDCHAR

STARTCHAR uring
ENCODING 249
SWIDTH 556 0
DWIDTH 28 0
BBX 27 38 0 -1
BITMAP
0000F000
0001FC00
00030C00
00060600
00060600
00060600
00060600
00030C00
0001F800
0000F000
00000000
00000000
00000000
00E00700
03E00F00
0FE00E00
19E00E00
31C00E00
01C00E00
01C01C00
03C01C00
03C01C00
03803C00
03803800
07807800
07007800
0700F800
0700B800
0F013000
0F037000
0E067000
0E0C7000
0E187080
1E307100
1E60F600
1FC0FC00
1F80F800
0E00E000
ENDCHAR

STARTCHAR uacute
ENCODING 250
SWIDTH 556 0
DWIDTH 28 0
BBX 27 37 0 -1
BITMAP
00000700
00000F00
00001E00
00003C00
00007000
0000E000
00018000
00020000
00000000
00000000
00000000
00000000
00E00700
03E00F00
0FE00F00
19E00E00
31C00E00
01C00E00
01C01E00
03C01C00
03801C00
03803C00
03803C00
07807800
07007800
0700F800
0700B800
0F013800
0F037000
0E067000
0E0C7000
0E187080
1E30F180
1E60F600
1FC0FC00
1F80F800
0E00E000
ENDCHAR

STARTCHAR uhungarumlaut
ENCODING 251
SWIDTH 556 0
DWIDTH 28 0
BBX 28 38 0 -1
BITMAP
000060C0
0000F1E0
0000E3C0
0001E3C0
0003C780
00038700
00070E00
000E1C00
000C1800
00000000
00000000
00000000
00000000
00E00700
03E00F00
0FE00F00
19E00E00
31C00E00
01C00E00
01C01E00
03C01C00
03801C00
03803C00
03803C00
07807800
07007800
0700F800
0700B800
0F013800
0F037000
0E067000
0E0C7000
0E187080
1E30F180
1E60F600
1FC0FC00
1F80F800
0E00E000
ENDCHAR

STARTCHAR udieresis
ENCODING 252
SWIDTH 556 0
DWIDTH 28 0
BBX 27 34 0 -1
BITMAP
00070700
000F0F00
000F0F00
000F0F00
00060600
00000000
00000000
00000000
00000000
00E00700
03E00F00
0FE00E00
19E00E00
31C00E00
01C00E00
01C01C00
03C01C00
03801C00
03803C00
03803800
07807800
07007800
0700F800
0700B800
0F013000
0F037000
0E067000
0E0C7000
0E187080
1E30F100
1E60F600
1FC0FC00
1F80F800
0E00E000
ENDCHAR

STARTCHAR yacute
ENCODING 253
SWIDTH 500 0
DWIDTH 25 0
BBX 28 50 -1 -14
BITMAP
00000700
00000F00
00001E00
00003C00
00007000
0000E000
00018000
00030000
00000000
00000000
00000000
00000000
01C003C0
03E003C0
0FE00380
19E00780
31E00780
01E00700
01E00F00
01E00F00
01E00E00
01C01E00
01C01E00
01C01C00
01C03C00
01C03C00
01C07C00
01C07800
01C0B800
03C1B800
03C17000
03C27000
03CC7000
03F8F000
03F0E000
01E0E000
00C0E000
0001C000
0001C000
00018000
00038000
00030000
00070000
00060000
300C0000
700C0000
78180000
78300000
3FC00000
1F000000
ENDCHAR

STARTCHAR tcommaaccent
ENCODING 254
SWIDTH 333 0
DWIDTH 17 0
BBX 18 44 0 -12
BITMAP
000800
007800
007800
007800
007800
007000
00F000
00F000
00F000
00E000
01E080
07FF80
1FFF00
01E000
01C000
01C000
01C000
01C000
03C000
038000
038000
038000
038000
078000
078000
070000
070000
070C00
0F1800
0FF000
0FC000
0F8000
040000
000000
000000
030000
070000
0E0000
0E0000
0C0000
180000
100000
300000
400000
ENDCHAR

STARTCHAR dotaccent
ENCODING 255
SWIDTH 333 0
DWIDTH 17 0
BBX 8 5 9 28
BITMAP
1C
3C
3C
3C
38
ENDCHAR
ENDFONT
